<mxfile host="app.diagrams.net" modified="2023-11-02T23:18:29.024Z" agent="Mozilla/5.0 (Windows NT 10.0; Win64; x64) AppleWebKit/537.36 (KHTML, like Gecko) Chrome/116.0.0.0 Safari/537.36 OPR/102.0.0.0" etag="U8ObXCffRxB6rPoBDBr6" version="22.0.8" type="device">
  <diagram name="Page-1" id="3RLFzzzIy6mbTQJXtCnw">
    <mxGraphModel dx="2505" dy="4223" grid="1" gridSize="10" guides="1" tooltips="1" connect="1" arrows="1" fold="1" page="1" pageScale="1" pageWidth="827" pageHeight="1169" math="0" shadow="0">
      <root>
        <mxCell id="0" />
        <mxCell id="1" parent="0" />
        <object placeholders="1" c4Name="Platform Administrator" c4Type="Person" c4Description="This user is responsible for the management of the website" label="&lt;font style=&quot;font-size: 16px&quot;&gt;&lt;b&gt;%c4Name%&lt;/b&gt;&lt;/font&gt;&lt;div&gt;[%c4Type%]&lt;/div&gt;&lt;br&gt;&lt;div&gt;&lt;font style=&quot;font-size: 11px&quot;&gt;&lt;font color=&quot;#cccccc&quot;&gt;%c4Description%&lt;/font&gt;&lt;/div&gt;" id="yd8mIZWFUKg9_xZ7_0ex-1">
          <mxCell style="html=1;fontSize=11;dashed=0;whiteSpace=wrap;fillColor=#083F75;strokeColor=#06315C;fontColor=#ffffff;shape=mxgraph.c4.person2;align=center;metaEdit=1;points=[[0.5,0,0],[1,0.5,0],[1,0.75,0],[0.75,1,0],[0.5,1,0],[0.25,1,0],[0,0.75,0],[0,0.5,0]];resizable=0;" parent="1" vertex="1">
            <mxGeometry x="557" y="10" width="200" height="180" as="geometry" />
          </mxCell>
        </object>
        <object placeholders="1" c4Name="Platform User" c4Type="Person" c4Description="A user looking for a concert they can attend and purchase tickets for it" label="&lt;font style=&quot;font-size: 16px&quot;&gt;&lt;b&gt;%c4Name%&lt;/b&gt;&lt;/font&gt;&lt;div&gt;[%c4Type%]&lt;/div&gt;&lt;br&gt;&lt;div&gt;&lt;font style=&quot;font-size: 11px&quot;&gt;&lt;font color=&quot;#cccccc&quot;&gt;%c4Description%&lt;/font&gt;&lt;/div&gt;" id="yd8mIZWFUKg9_xZ7_0ex-2">
          <mxCell style="html=1;fontSize=11;dashed=0;whiteSpace=wrap;fillColor=#083F75;strokeColor=#06315C;fontColor=#ffffff;shape=mxgraph.c4.person2;align=center;metaEdit=1;points=[[0.5,0,0],[1,0.5,0],[1,0.75,0],[0.75,1,0],[0.5,1,0],[0.25,1,0],[0,0.75,0],[0,0.5,0]];resizable=0;" parent="1" vertex="1">
            <mxGeometry x="-393" y="20" width="200" height="180" as="geometry" />
          </mxCell>
        </object>
        <object placeholders="1" c4Name="Ticket purchasing web platform" c4Type="Software System" c4Description="Allow users to purchase tickets for a wide range of concerts" label="&lt;font style=&quot;font-size: 16px&quot;&gt;&lt;b&gt;%c4Name%&lt;/b&gt;&lt;/font&gt;&lt;div&gt;[%c4Type%]&lt;/div&gt;&lt;br&gt;&lt;div&gt;&lt;font style=&quot;font-size: 11px&quot;&gt;&lt;font color=&quot;#cccccc&quot;&gt;%c4Description%&lt;/font&gt;&lt;/div&gt;" id="yd8mIZWFUKg9_xZ7_0ex-3">
          <mxCell style="rounded=1;whiteSpace=wrap;html=1;labelBackgroundColor=none;fillColor=#1061B0;fontColor=#ffffff;align=center;arcSize=10;strokeColor=#0D5091;metaEdit=1;resizable=0;points=[[0.25,0,0],[0.5,0,0],[0.75,0,0],[1,0.25,0],[1,0.5,0],[1,0.75,0],[0.75,1,0],[0.5,1,0],[0.25,1,0],[0,0.75,0],[0,0.5,0],[0,0.25,0]];" parent="1" vertex="1">
            <mxGeometry x="27" y="70" width="240" height="120" as="geometry" />
          </mxCell>
        </object>
        <object placeholders="1" c4Name="QR Code Generator API" c4Type="Software System" c4Description="An external API that generates a unique QR code." label="&lt;font style=&quot;font-size: 16px&quot;&gt;&lt;b&gt;%c4Name%&lt;/b&gt;&lt;/font&gt;&lt;div&gt;[%c4Type%]&lt;/div&gt;&lt;br&gt;&lt;div&gt;&lt;font style=&quot;font-size: 11px&quot;&gt;&lt;font color=&quot;#cccccc&quot;&gt;%c4Description%&lt;/font&gt;&lt;/div&gt;" id="yd8mIZWFUKg9_xZ7_0ex-4">
          <mxCell style="rounded=1;whiteSpace=wrap;html=1;labelBackgroundColor=none;fillColor=#8C8496;fontColor=#ffffff;align=center;arcSize=10;strokeColor=#736782;metaEdit=1;resizable=0;points=[[0.25,0,0],[0.5,0,0],[0.75,0,0],[1,0.25,0],[1,0.5,0],[1,0.75,0],[0.75,1,0],[0.5,1,0],[0.25,1,0],[0,0.75,0],[0,0.5,0],[0,0.25,0]];" parent="1" vertex="1">
            <mxGeometry x="-413" y="380" width="240" height="120" as="geometry" />
          </mxCell>
        </object>
        <object placeholders="1" c4Type="Relationship" c4Description="Sends the order information and generates&#xa;an unique QR code that gets bound&#xa;to each ticket using" label="&lt;div style=&quot;text-align: left&quot;&gt;&lt;div style=&quot;text-align: center&quot;&gt;&lt;b&gt;%c4Description%&lt;/b&gt;&lt;/div&gt;" id="yd8mIZWFUKg9_xZ7_0ex-5">
          <mxCell style="endArrow=blockThin;html=1;fontSize=10;fontColor=#404040;strokeWidth=1;endFill=1;strokeColor=#828282;elbow=vertical;metaEdit=1;endSize=14;startSize=14;jumpStyle=arc;jumpSize=16;rounded=0;edgeStyle=orthogonalEdgeStyle;exitX=0;exitY=0.75;exitDx=0;exitDy=0;exitPerimeter=0;entryX=1;entryY=0.5;entryDx=0;entryDy=0;entryPerimeter=0;" parent="1" source="yd8mIZWFUKg9_xZ7_0ex-3" target="yd8mIZWFUKg9_xZ7_0ex-4" edge="1">
            <mxGeometry width="240" relative="1" as="geometry">
              <mxPoint x="-33" y="370" as="sourcePoint" />
              <mxPoint x="207" y="370" as="targetPoint" />
              <Array as="points">
                <mxPoint x="27" y="170" />
                <mxPoint x="-73" y="170" />
                <mxPoint x="-73" y="440" />
              </Array>
            </mxGeometry>
          </mxCell>
        </object>
        <object placeholders="1" c4Type="Relationship" c4Description="Binds tickets to" label="&lt;div style=&quot;text-align: left&quot;&gt;&lt;div style=&quot;text-align: center&quot;&gt;&lt;b&gt;%c4Description%&lt;/b&gt;&lt;/div&gt;" id="yd8mIZWFUKg9_xZ7_0ex-6">
          <mxCell style="endArrow=blockThin;html=1;fontSize=10;fontColor=#404040;strokeWidth=1;endFill=1;strokeColor=#828282;elbow=vertical;metaEdit=1;endSize=14;startSize=14;jumpStyle=arc;jumpSize=16;rounded=0;edgeStyle=orthogonalEdgeStyle;exitX=0.5;exitY=0;exitDx=0;exitDy=0;exitPerimeter=0;entryX=0.5;entryY=1;entryDx=0;entryDy=0;entryPerimeter=0;" parent="1" source="yd8mIZWFUKg9_xZ7_0ex-4" target="yd8mIZWFUKg9_xZ7_0ex-2" edge="1">
            <mxGeometry width="240" relative="1" as="geometry">
              <mxPoint x="-33" y="370" as="sourcePoint" />
              <mxPoint x="207" y="370" as="targetPoint" />
            </mxGeometry>
          </mxCell>
        </object>
        <object placeholders="1" c4Type="Relationship" c4Description="Creates an order by selecting &#xa;a desired number of tickets &#xa;for a specific concert." label="&lt;div style=&quot;text-align: left&quot;&gt;&lt;div style=&quot;text-align: center&quot;&gt;&lt;b&gt;%c4Description%&lt;/b&gt;&lt;/div&gt;" id="yd8mIZWFUKg9_xZ7_0ex-9">
          <mxCell style="endArrow=blockThin;html=1;fontSize=10;fontColor=#404040;strokeWidth=1;endFill=1;strokeColor=#828282;elbow=vertical;metaEdit=1;endSize=14;startSize=14;jumpStyle=arc;jumpSize=16;rounded=0;edgeStyle=orthogonalEdgeStyle;exitX=1;exitY=0.594;exitDx=0;exitDy=0;exitPerimeter=0;entryX=0;entryY=0.5;entryDx=0;entryDy=0;entryPerimeter=0;" parent="1" source="yd8mIZWFUKg9_xZ7_0ex-2" target="yd8mIZWFUKg9_xZ7_0ex-3" edge="1">
            <mxGeometry width="240" relative="1" as="geometry">
              <mxPoint x="-33" y="370" as="sourcePoint" />
              <mxPoint x="207" y="370" as="targetPoint" />
            </mxGeometry>
          </mxCell>
        </object>
        <object placeholders="1" c4Type="Relationship" c4Description="Creates and updates concerts on &#xa;the platform, as well as having &#xa;access to information for all orders." label="&lt;div style=&quot;text-align: left&quot;&gt;&lt;div style=&quot;text-align: center&quot;&gt;&lt;b&gt;%c4Description%&lt;/b&gt;&lt;/div&gt;" id="yd8mIZWFUKg9_xZ7_0ex-10">
          <mxCell style="endArrow=blockThin;html=1;fontSize=10;fontColor=#404040;strokeWidth=1;endFill=1;strokeColor=#828282;elbow=vertical;metaEdit=1;endSize=14;startSize=14;jumpStyle=arc;jumpSize=16;rounded=0;edgeStyle=orthogonalEdgeStyle;exitX=-0.005;exitY=0.694;exitDx=0;exitDy=0;exitPerimeter=0;entryX=1;entryY=0.5;entryDx=0;entryDy=0;entryPerimeter=0;" parent="1" source="yd8mIZWFUKg9_xZ7_0ex-1" target="yd8mIZWFUKg9_xZ7_0ex-3" edge="1">
            <mxGeometry width="240" relative="1" as="geometry">
              <mxPoint x="-33" y="370" as="sourcePoint" />
              <mxPoint x="207" y="370" as="targetPoint" />
            </mxGeometry>
          </mxCell>
        </object>
        <mxCell id="yd8mIZWFUKg9_xZ7_0ex-11" value="&lt;font style=&quot;font-size: 36px;&quot;&gt;C1&lt;/font&gt;" style="ellipse;whiteSpace=wrap;html=1;aspect=fixed;" parent="1" vertex="1">
          <mxGeometry x="-383" y="-120" width="80" height="80" as="geometry" />
        </mxCell>
        <object placeholders="1" c4Name="Platform Administrator" c4Type="Person" c4Description="This user is responsible for the management of the website" label="&lt;font style=&quot;font-size: 16px&quot;&gt;&lt;b&gt;%c4Name%&lt;/b&gt;&lt;/font&gt;&lt;div&gt;[%c4Type%]&lt;/div&gt;&lt;br&gt;&lt;div&gt;&lt;font style=&quot;font-size: 11px&quot;&gt;&lt;font color=&quot;#cccccc&quot;&gt;%c4Description%&lt;/font&gt;&lt;/div&gt;" id="yd8mIZWFUKg9_xZ7_0ex-12">
          <mxCell style="html=1;fontSize=11;dashed=0;whiteSpace=wrap;fillColor=#083F75;strokeColor=#06315C;fontColor=#ffffff;shape=mxgraph.c4.person2;align=center;metaEdit=1;points=[[0.5,0,0],[1,0.5,0],[1,0.75,0],[0.75,1,0],[0.5,1,0],[0.25,1,0],[0,0.75,0],[0,0.5,0]];resizable=0;" parent="1" vertex="1">
            <mxGeometry x="1600" width="200" height="180" as="geometry" />
          </mxCell>
        </object>
        <object placeholders="1" c4Name="Platform User" c4Type="Person" c4Description="A user looking for a concert they can attend and purchase tickets for it" label="&lt;font style=&quot;font-size: 16px&quot;&gt;&lt;b&gt;%c4Name%&lt;/b&gt;&lt;/font&gt;&lt;div&gt;[%c4Type%]&lt;/div&gt;&lt;br&gt;&lt;div&gt;&lt;font style=&quot;font-size: 11px&quot;&gt;&lt;font color=&quot;#cccccc&quot;&gt;%c4Description%&lt;/font&gt;&lt;/div&gt;" id="yd8mIZWFUKg9_xZ7_0ex-13">
          <mxCell style="html=1;fontSize=11;dashed=0;whiteSpace=wrap;fillColor=#083F75;strokeColor=#06315C;fontColor=#ffffff;shape=mxgraph.c4.person2;align=center;metaEdit=1;points=[[0.5,0,0],[1,0.5,0],[1,0.75,0],[0.75,1,0],[0.5,1,0],[0.25,1,0],[0,0.75,0],[0,0.5,0]];resizable=0;" parent="1" vertex="1">
            <mxGeometry x="2166" width="200" height="180" as="geometry" />
          </mxCell>
        </object>
        <mxCell id="yd8mIZWFUKg9_xZ7_0ex-14" value="&lt;font style=&quot;font-size: 36px;&quot;&gt;C2&lt;/font&gt;" style="ellipse;whiteSpace=wrap;html=1;aspect=fixed;" parent="1" vertex="1">
          <mxGeometry x="1550" y="-120" width="80" height="80" as="geometry" />
        </mxCell>
        <object placeholders="1" c4Name="Container diagram for &#xa;ticket purchasing web platform" c4Type="ContainerScopeBoundary" label="&lt;font style=&quot;font-size: 16px&quot;&gt;&lt;b&gt;&lt;div style=&quot;text-align: left&quot;&gt;%c4Name%&lt;/div&gt;&lt;/b&gt;&lt;/font&gt;&lt;div style=&quot;text-align: left&quot;&gt;[%c4Application%]&lt;/div&gt;" id="yd8mIZWFUKg9_xZ7_0ex-15">
          <mxCell style="rounded=1;fontSize=11;whiteSpace=wrap;html=1;dashed=1;arcSize=20;fillColor=none;strokeColor=#666666;fontColor=#333333;labelBackgroundColor=none;align=left;verticalAlign=bottom;labelBorderColor=none;spacingTop=0;spacing=10;dashPattern=8 4;metaEdit=1;rotatable=0;perimeter=rectanglePerimeter;noLabel=0;labelPadding=0;allowArrows=0;connectable=0;expand=0;recursiveResize=0;editable=1;pointerEvents=0;absoluteArcSize=1;points=[[0.25,0,0],[0.5,0,0],[0.75,0,0],[1,0.25,0],[1,0.5,0],[1,0.75,0],[0.75,1,0],[0.5,1,0],[0.25,1,0],[0,0.75,0],[0,0.5,0],[0,0.25,0]];" parent="1" vertex="1">
            <mxGeometry x="1790" y="320" width="390" height="820" as="geometry" />
          </mxCell>
        </object>
        <object placeholders="1" c4Type="Database" c4Container="Container" c4Technology="MySQL" c4Description="Stores the data of users, &#xa;concerts, orders and tickets" label="&lt;font style=&quot;font-size: 16px&quot;&gt;&lt;b&gt;%c4Type%&lt;/b&gt;&lt;/font&gt;&lt;div&gt;[%c4Container%:&amp;nbsp;%c4Technology%]&lt;/div&gt;&lt;br&gt;&lt;div&gt;&lt;font style=&quot;font-size: 11px&quot;&gt;&lt;font color=&quot;#E6E6E6&quot;&gt;%c4Description%&lt;/font&gt;&lt;/div&gt;" id="yd8mIZWFUKg9_xZ7_0ex-16">
          <mxCell style="shape=cylinder3;size=15;whiteSpace=wrap;html=1;boundedLbl=1;rounded=0;labelBackgroundColor=none;fillColor=#23A2D9;fontSize=12;fontColor=#ffffff;align=center;strokeColor=#0E7DAD;metaEdit=1;points=[[0.5,0,0],[1,0.25,0],[1,0.5,0],[1,0.75,0],[0.5,1,0],[0,0.75,0],[0,0.5,0],[0,0.25,0]];resizable=0;" parent="1" vertex="1">
            <mxGeometry x="1865" y="880" width="240" height="120" as="geometry" />
          </mxCell>
        </object>
        <object placeholders="1" c4Name="Backend application" c4Type="[Container: Java Spring Boot + REST]" c4Description="Provides all the platform business&#xa;functionality to manipulate the database." label="&lt;font style=&quot;font-size: 16px&quot;&gt;&lt;b&gt;%c4Name%&lt;/b&gt;&lt;/font&gt;&lt;div&gt;[%c4Type%]&lt;/div&gt;&lt;br&gt;&lt;div&gt;&lt;font style=&quot;font-size: 11px&quot;&gt;&lt;font color=&quot;#cccccc&quot;&gt;%c4Description%&lt;/font&gt;&lt;/div&gt;" id="yd8mIZWFUKg9_xZ7_0ex-17">
          <mxCell style="rounded=1;whiteSpace=wrap;html=1;labelBackgroundColor=none;fillColor=#1061B0;fontColor=#ffffff;align=center;arcSize=10;strokeColor=#0D5091;metaEdit=1;resizable=0;points=[[0.25,0,0],[0.5,0,0],[0.75,0,0],[1,0.25,0],[1,0.5,0],[1,0.75,0],[0.75,1,0],[0.5,1,0],[0.25,1,0],[0,0.75,0],[0,0.5,0],[0,0.25,0]];" parent="1" vertex="1">
            <mxGeometry x="1865" y="640" width="240" height="120" as="geometry" />
          </mxCell>
        </object>
        <object placeholders="1" c4Name="Single-page application" c4Type="Container: JavaScript and React" c4Description="Provides the ordering functionality, concert&#xa; and ticket management to the users &#xa;in their web browsers" label="&lt;font style=&quot;font-size: 16px&quot;&gt;&lt;b&gt;%c4Name%&lt;/b&gt;&lt;/font&gt;&lt;div&gt;[%c4Type%]&lt;/div&gt;&lt;br&gt;&lt;div&gt;&lt;font style=&quot;font-size: 11px&quot;&gt;&lt;font color=&quot;#cccccc&quot;&gt;%c4Description%&lt;/font&gt;&lt;/div&gt;" id="yd8mIZWFUKg9_xZ7_0ex-18">
          <mxCell style="rounded=1;whiteSpace=wrap;html=1;labelBackgroundColor=none;fillColor=#1061B0;fontColor=#ffffff;align=center;arcSize=10;strokeColor=#0D5091;metaEdit=1;resizable=0;points=[[0.25,0,0],[0.5,0,0],[0.75,0,0],[1,0.25,0],[1,0.5,0],[1,0.75,0],[0.75,1,0],[0.5,1,0],[0.25,1,0],[0,0.75,0],[0,0.5,0],[0,0.25,0]];" parent="1" vertex="1">
            <mxGeometry x="1865" y="400" width="240" height="120" as="geometry" />
          </mxCell>
        </object>
        <object placeholders="1" c4Type="Relationship" c4Description="Creates and updates concerts on &#xa;the platform, as well as having &#xa;access to information for all orders." label="&lt;div style=&quot;text-align: left&quot;&gt;&lt;div style=&quot;text-align: center&quot;&gt;&lt;b&gt;%c4Description%&lt;/b&gt;&lt;/div&gt;" id="yd8mIZWFUKg9_xZ7_0ex-20">
          <mxCell style="endArrow=blockThin;html=1;fontSize=10;fontColor=#404040;strokeWidth=1;endFill=1;strokeColor=#828282;elbow=vertical;metaEdit=1;endSize=14;startSize=14;jumpStyle=arc;jumpSize=16;rounded=0;edgeStyle=orthogonalEdgeStyle;exitX=0.5;exitY=1;exitDx=0;exitDy=0;exitPerimeter=0;entryX=0;entryY=0.5;entryDx=0;entryDy=0;entryPerimeter=0;" parent="1" source="yd8mIZWFUKg9_xZ7_0ex-12" target="yd8mIZWFUKg9_xZ7_0ex-18" edge="1">
            <mxGeometry x="-0.6405" width="240" relative="1" as="geometry">
              <mxPoint x="1850" y="400" as="sourcePoint" />
              <mxPoint x="2090" y="400" as="targetPoint" />
              <mxPoint as="offset" />
            </mxGeometry>
          </mxCell>
        </object>
        <object placeholders="1" c4Type="Relationship" c4Description="Creates an order by selecting &#xa;a desired number of tickets &#xa;for a specific concert." label="&lt;div style=&quot;text-align: left&quot;&gt;&lt;div style=&quot;text-align: center&quot;&gt;&lt;b&gt;%c4Description%&lt;/b&gt;&lt;/div&gt;" id="yd8mIZWFUKg9_xZ7_0ex-21">
          <mxCell style="endArrow=blockThin;html=1;fontSize=10;fontColor=#404040;strokeWidth=1;endFill=1;strokeColor=#828282;elbow=vertical;metaEdit=1;endSize=14;startSize=14;jumpStyle=arc;jumpSize=16;rounded=0;edgeStyle=orthogonalEdgeStyle;exitX=0.5;exitY=1;exitDx=0;exitDy=0;exitPerimeter=0;entryX=1;entryY=0.25;entryDx=0;entryDy=0;entryPerimeter=0;" parent="1" source="yd8mIZWFUKg9_xZ7_0ex-13" target="yd8mIZWFUKg9_xZ7_0ex-18" edge="1">
            <mxGeometry x="-0.6373" width="240" relative="1" as="geometry">
              <mxPoint x="2060" y="310" as="sourcePoint" />
              <mxPoint x="2300" y="310" as="targetPoint" />
              <Array as="points">
                <mxPoint x="2266" y="430" />
              </Array>
              <mxPoint as="offset" />
            </mxGeometry>
          </mxCell>
        </object>
        <object placeholders="1" c4Type="Relationship" c4Description="Sends the order information using a Request &#xa;and generates an unique QR code &#xa;that gets bound to each ticket using" label="&lt;div style=&quot;text-align: left&quot;&gt;&lt;div style=&quot;text-align: center&quot;&gt;&lt;b&gt;%c4Description%&lt;/b&gt;&lt;/div&gt;" id="yd8mIZWFUKg9_xZ7_0ex-23">
          <mxCell style="endArrow=blockThin;html=1;fontSize=10;fontColor=#404040;strokeWidth=1;endFill=1;strokeColor=#828282;elbow=vertical;metaEdit=1;endSize=14;startSize=14;jumpStyle=arc;jumpSize=16;rounded=0;edgeStyle=orthogonalEdgeStyle;exitX=1;exitY=0.75;exitDx=0;exitDy=0;exitPerimeter=0;entryX=0;entryY=0.5;entryDx=0;entryDy=0;entryPerimeter=0;" parent="1" target="yd8mIZWFUKg9_xZ7_0ex-27" edge="1">
            <mxGeometry x="0.1561" width="240" relative="1" as="geometry">
              <mxPoint x="2105" y="480" as="sourcePoint" />
              <mxPoint x="2440" y="480" as="targetPoint" />
              <Array as="points" />
              <mxPoint as="offset" />
            </mxGeometry>
          </mxCell>
        </object>
        <object placeholders="1" c4Type="Relationship" c4Description="Binds tickets to" label="&lt;div style=&quot;text-align: left&quot;&gt;&lt;div style=&quot;text-align: center&quot;&gt;&lt;b&gt;%c4Description%&lt;/b&gt;&lt;/div&gt;" id="yd8mIZWFUKg9_xZ7_0ex-24">
          <mxCell style="endArrow=blockThin;html=1;fontSize=10;fontColor=#404040;strokeWidth=1;endFill=1;strokeColor=#828282;elbow=vertical;metaEdit=1;endSize=14;startSize=14;jumpStyle=arc;jumpSize=16;rounded=0;edgeStyle=orthogonalEdgeStyle;exitX=0.5;exitY=0;exitDx=0;exitDy=0;exitPerimeter=0;entryX=1;entryY=0.75;entryDx=0;entryDy=0;entryPerimeter=0;" parent="1" source="yd8mIZWFUKg9_xZ7_0ex-27" target="yd8mIZWFUKg9_xZ7_0ex-13" edge="1">
            <mxGeometry x="-0.4154" width="240" relative="1" as="geometry">
              <mxPoint x="2560" y="420" as="sourcePoint" />
              <mxPoint x="2530" y="140" as="targetPoint" />
              <mxPoint as="offset" />
            </mxGeometry>
          </mxCell>
        </object>
        <object placeholders="1" c4Type="Relationship" c4Description="Make API calls&#xa;using JSON/HTTP API" label="&lt;div style=&quot;text-align: left&quot;&gt;&lt;div style=&quot;text-align: center&quot;&gt;&lt;b&gt;%c4Description%&lt;/b&gt;&lt;/div&gt;" id="yd8mIZWFUKg9_xZ7_0ex-25">
          <mxCell style="endArrow=blockThin;html=1;fontSize=10;fontColor=#404040;strokeWidth=1;endFill=1;strokeColor=#828282;elbow=vertical;metaEdit=1;endSize=14;startSize=14;jumpStyle=arc;jumpSize=16;rounded=0;edgeStyle=orthogonalEdgeStyle;exitX=0.5;exitY=1;exitDx=0;exitDy=0;exitPerimeter=0;entryX=0.5;entryY=0;entryDx=0;entryDy=0;entryPerimeter=0;" parent="1" source="yd8mIZWFUKg9_xZ7_0ex-18" target="yd8mIZWFUKg9_xZ7_0ex-17" edge="1">
            <mxGeometry width="240" relative="1" as="geometry">
              <mxPoint x="2060" y="830" as="sourcePoint" />
              <mxPoint x="2300" y="830" as="targetPoint" />
            </mxGeometry>
          </mxCell>
        </object>
        <object placeholders="1" c4Type="Relationship" c4Description="Reads from and writes to using SQL" label="&lt;div style=&quot;text-align: left&quot;&gt;&lt;div style=&quot;text-align: center&quot;&gt;&lt;b&gt;%c4Description%&lt;/b&gt;&lt;/div&gt;" id="yd8mIZWFUKg9_xZ7_0ex-26">
          <mxCell style="endArrow=blockThin;html=1;fontSize=10;fontColor=#404040;strokeWidth=1;endFill=1;strokeColor=#828282;elbow=vertical;metaEdit=1;endSize=14;startSize=14;jumpStyle=arc;jumpSize=16;rounded=0;edgeStyle=orthogonalEdgeStyle;exitX=0.5;exitY=1;exitDx=0;exitDy=0;exitPerimeter=0;entryX=0.5;entryY=0;entryDx=0;entryDy=0;entryPerimeter=0;" parent="1" source="yd8mIZWFUKg9_xZ7_0ex-17" target="yd8mIZWFUKg9_xZ7_0ex-16" edge="1">
            <mxGeometry width="240" relative="1" as="geometry">
              <mxPoint x="2060" y="740" as="sourcePoint" />
              <mxPoint x="2300" y="740" as="targetPoint" />
            </mxGeometry>
          </mxCell>
        </object>
        <object placeholders="1" c4Name="QR Code Generator API" c4Type="Software System" c4Description="An external API that generates a unique QR code." label="&lt;font style=&quot;font-size: 16px&quot;&gt;&lt;b&gt;%c4Name%&lt;/b&gt;&lt;/font&gt;&lt;div&gt;[%c4Type%]&lt;/div&gt;&lt;br&gt;&lt;div&gt;&lt;font style=&quot;font-size: 11px&quot;&gt;&lt;font color=&quot;#cccccc&quot;&gt;%c4Description%&lt;/font&gt;&lt;/div&gt;" id="yd8mIZWFUKg9_xZ7_0ex-27">
          <mxCell style="rounded=1;whiteSpace=wrap;html=1;labelBackgroundColor=none;fillColor=#8C8496;fontColor=#ffffff;align=center;arcSize=10;strokeColor=#736782;metaEdit=1;resizable=0;points=[[0.25,0,0],[0.5,0,0],[0.75,0,0],[1,0.25,0],[1,0.5,0],[1,0.75,0],[0.75,1,0],[0.5,1,0],[0.25,1,0],[0,0.75,0],[0,0.5,0],[0,0.25,0]];" parent="1" vertex="1">
            <mxGeometry x="2460" y="420" width="240" height="120" as="geometry" />
          </mxCell>
        </object>
        <mxCell id="yd8mIZWFUKg9_xZ7_0ex-28" value="&lt;font style=&quot;font-size: 36px;&quot;&gt;C3&lt;br&gt;&lt;/font&gt;" style="ellipse;whiteSpace=wrap;html=1;aspect=fixed;" parent="1" vertex="1">
          <mxGeometry x="3490" y="-120" width="80" height="80" as="geometry" />
        </mxCell>
        <object placeholders="1" c4Name="Ticket System" c4Type="ContainerScopeBoundary" c4Application="API Application" label="&lt;font style=&quot;font-size: 16px&quot;&gt;&lt;b&gt;&lt;div style=&quot;text-align: left&quot;&gt;%c4Name%&lt;/div&gt;&lt;/b&gt;&lt;/font&gt;&lt;div style=&quot;text-align: left&quot;&gt;[%c4Application%]&lt;/div&gt;" id="yd8mIZWFUKg9_xZ7_0ex-30">
          <mxCell style="rounded=1;fontSize=11;whiteSpace=wrap;html=1;dashed=1;arcSize=20;fillColor=none;strokeColor=#666666;fontColor=#333333;labelBackgroundColor=none;align=left;verticalAlign=bottom;labelBorderColor=none;spacingTop=0;spacing=10;dashPattern=8 4;metaEdit=1;rotatable=0;perimeter=rectanglePerimeter;noLabel=0;labelPadding=0;allowArrows=0;connectable=0;expand=0;recursiveResize=0;editable=1;pointerEvents=0;absoluteArcSize=1;points=[[0.25,0,0],[0.5,0,0],[0.75,0,0],[1,0.25,0],[1,0.5,0],[1,0.75,0],[0.75,1,0],[0.5,1,0],[0.25,1,0],[0,0.75,0],[0,0.5,0],[0,0.25,0]];" parent="1" vertex="1">
            <mxGeometry x="3760" y="200" width="1440" height="830" as="geometry" />
          </mxCell>
        </object>
        <object placeholders="1" c4Type="Relationship" id="yd8mIZWFUKg9_xZ7_0ex-38">
          <mxCell style="endArrow=blockThin;html=1;fontSize=10;fontColor=#404040;strokeWidth=1;endFill=1;strokeColor=#828282;elbow=vertical;metaEdit=1;endSize=14;startSize=14;jumpStyle=arc;jumpSize=16;rounded=0;edgeStyle=orthogonalEdgeStyle;entryX=0.5;entryY=0;entryDx=0;entryDy=0;entryPerimeter=0;" parent="1" target="yd8mIZWFUKg9_xZ7_0ex-45" edge="1">
            <mxGeometry width="240" relative="1" as="geometry">
              <mxPoint x="4480" y="30" as="sourcePoint" />
              <mxPoint x="4300" y="240" as="targetPoint" />
              <Array as="points">
                <mxPoint x="4480" y="120" />
                <mxPoint x="4300" y="120" />
              </Array>
            </mxGeometry>
          </mxCell>
        </object>
        <mxCell id="hAX12gE_xkIKobP7N-9E-3" value="Makes API calls for&lt;br style=&quot;border-color: var(--border-color);&quot;&gt;viewing, creating &lt;br&gt;and updating to&lt;br style=&quot;border-color: var(--border-color);&quot;&gt;[JSON/HTTP]" style="edgeLabel;html=1;align=center;verticalAlign=middle;resizable=0;points=[];" parent="yd8mIZWFUKg9_xZ7_0ex-38" vertex="1" connectable="0">
          <mxGeometry x="0.7436" y="1" relative="1" as="geometry">
            <mxPoint x="-1" as="offset" />
          </mxGeometry>
        </mxCell>
        <object placeholders="1" c4Type="Relationship" id="yd8mIZWFUKg9_xZ7_0ex-39">
          <mxCell style="endArrow=blockThin;html=1;fontSize=10;fontColor=#404040;strokeWidth=1;endFill=1;strokeColor=#828282;elbow=vertical;metaEdit=1;endSize=14;startSize=14;jumpStyle=arc;jumpSize=16;rounded=0;edgeStyle=orthogonalEdgeStyle;entryX=0.5;entryY=0;entryDx=0;entryDy=0;entryPerimeter=0;" parent="1" target="yd8mIZWFUKg9_xZ7_0ex-46" edge="1">
            <mxGeometry width="240" relative="1" as="geometry">
              <mxPoint x="4480" y="30" as="sourcePoint" />
              <mxPoint x="4650" y="240" as="targetPoint" />
              <Array as="points">
                <mxPoint x="4480" y="120" />
                <mxPoint x="4650" y="120" />
              </Array>
            </mxGeometry>
          </mxCell>
        </object>
        <mxCell id="hAX12gE_xkIKobP7N-9E-6" value="Makes API calls for&lt;br style=&quot;border-color: var(--border-color);&quot;&gt;viewing and creating&amp;nbsp;to&lt;br style=&quot;border-color: var(--border-color);&quot;&gt;[JSON/HTTP]" style="edgeLabel;html=1;align=center;verticalAlign=middle;resizable=0;points=[];" parent="yd8mIZWFUKg9_xZ7_0ex-39" vertex="1" connectable="0">
          <mxGeometry x="0.6687" y="2" relative="1" as="geometry">
            <mxPoint x="-2" y="13" as="offset" />
          </mxGeometry>
        </mxCell>
        <object placeholders="1" c4Type="Relationship" id="yd8mIZWFUKg9_xZ7_0ex-42">
          <mxCell style="endArrow=blockThin;html=1;fontSize=10;fontColor=#404040;strokeWidth=1;endFill=1;strokeColor=#828282;elbow=vertical;metaEdit=1;endSize=14;startSize=14;jumpStyle=arc;jumpSize=16;rounded=0;edgeStyle=orthogonalEdgeStyle;entryX=0.5;entryY=0;entryDx=0;entryDy=0;entryPerimeter=0;" parent="1" target="yd8mIZWFUKg9_xZ7_0ex-47" edge="1">
            <mxGeometry width="240" relative="1" as="geometry">
              <mxPoint x="4480" y="30" as="sourcePoint" />
              <mxPoint x="5000" y="240" as="targetPoint" />
              <Array as="points">
                <mxPoint x="4480" y="120" />
                <mxPoint x="5000" y="120" />
              </Array>
            </mxGeometry>
          </mxCell>
        </object>
        <mxCell id="hAX12gE_xkIKobP7N-9E-7" value="Makes API calls for&lt;br style=&quot;border-color: var(--border-color);&quot;&gt;viewing, creating and&lt;br style=&quot;border-color: var(--border-color);&quot;&gt;updating to&lt;br style=&quot;border-color: var(--border-color);&quot;&gt;[JSON/HTTP]" style="edgeLabel;html=1;align=center;verticalAlign=middle;resizable=0;points=[];" parent="yd8mIZWFUKg9_xZ7_0ex-42" vertex="1" connectable="0">
          <mxGeometry x="0.8394" y="-3" relative="1" as="geometry">
            <mxPoint as="offset" />
          </mxGeometry>
        </mxCell>
        <object placeholders="1" c4Name="User controller" c4Type="Component" c4Technology="Spring Rest Controller" c4Description="Allows users to create, delete &#xa;accounts and update their &#xa;account information." label="&lt;font style=&quot;font-size: 16px&quot;&gt;&lt;b&gt;%c4Name%&lt;/b&gt;&lt;/font&gt;&lt;div&gt;[%c4Type%: %c4Technology%]&lt;/div&gt;&lt;br&gt;&lt;div&gt;&lt;font style=&quot;font-size: 11px&quot;&gt;%c4Description%&lt;/font&gt;&lt;/div&gt;" id="yd8mIZWFUKg9_xZ7_0ex-44">
          <mxCell style="rounded=1;whiteSpace=wrap;html=1;labelBackgroundColor=none;fillColor=#63BEF2;fontColor=#ffffff;align=center;arcSize=6;strokeColor=#2086C9;metaEdit=1;resizable=0;points=[[0.25,0,0],[0.5,0,0],[0.75,0,0],[1,0.25,0],[1,0.5,0],[1,0.75,0],[0.75,1,0],[0.5,1,0],[0.25,1,0],[0,0.75,0],[0,0.5,0],[0,0.25,0]];" parent="1" vertex="1">
            <mxGeometry x="3830" y="300" width="240" height="120" as="geometry" />
          </mxCell>
        </object>
        <object placeholders="1" c4Name="Concert Controller" c4Type="Component" c4Technology="Spring Rest Controller" c4Description="Allow users to view concerts and allows &#xa;administrators to create and &#xa;update concert information." label="&lt;font style=&quot;font-size: 16px&quot;&gt;&lt;b&gt;%c4Name%&lt;/b&gt;&lt;/font&gt;&lt;div&gt;[%c4Type%: %c4Technology%]&lt;/div&gt;&lt;br&gt;&lt;div&gt;&lt;font style=&quot;font-size: 11px&quot;&gt;%c4Description%&lt;/font&gt;&lt;/div&gt;" id="yd8mIZWFUKg9_xZ7_0ex-45">
          <mxCell style="rounded=1;whiteSpace=wrap;html=1;labelBackgroundColor=none;fillColor=#63BEF2;fontColor=#ffffff;align=center;arcSize=6;strokeColor=#2086C9;metaEdit=1;resizable=0;points=[[0.25,0,0],[0.5,0,0],[0.75,0,0],[1,0.25,0],[1,0.5,0],[1,0.75,0],[0.75,1,0],[0.5,1,0],[0.25,1,0],[0,0.75,0],[0,0.5,0],[0,0.25,0]];" parent="1" vertex="1">
            <mxGeometry x="4180" y="300" width="240" height="120" as="geometry" />
          </mxCell>
        </object>
        <object placeholders="1" c4Name="Order Controller" c4Type="Component" c4Technology="Spring Rest Controller" c4Description="Allow users to make and view orders" label="&lt;font style=&quot;font-size: 16px&quot;&gt;&lt;b&gt;%c4Name%&lt;/b&gt;&lt;/font&gt;&lt;div&gt;[%c4Type%: %c4Technology%]&lt;/div&gt;&lt;br&gt;&lt;div&gt;&lt;font style=&quot;font-size: 11px&quot;&gt;%c4Description%&lt;/font&gt;&lt;/div&gt;" id="yd8mIZWFUKg9_xZ7_0ex-46">
          <mxCell style="rounded=1;whiteSpace=wrap;html=1;labelBackgroundColor=none;fillColor=#63BEF2;fontColor=#ffffff;align=center;arcSize=6;strokeColor=#2086C9;metaEdit=1;resizable=0;points=[[0.25,0,0],[0.5,0,0],[0.75,0,0],[1,0.25,0],[1,0.5,0],[1,0.75,0],[0.75,1,0],[0.5,1,0],[0.25,1,0],[0,0.75,0],[0,0.5,0],[0,0.25,0]];" parent="1" vertex="1">
            <mxGeometry x="4530" y="300" width="240" height="120" as="geometry" />
          </mxCell>
        </object>
        <object placeholders="1" c4Name="Ticket Controller" c4Type="Component" c4Technology="Spring Rest Controller" c4Description="Allow users to obtain and view&#xa;tickets and for administrators&#xa;to update ticket information" label="&lt;font style=&quot;font-size: 16px&quot;&gt;&lt;b&gt;%c4Name%&lt;/b&gt;&lt;/font&gt;&lt;div&gt;[%c4Type%: %c4Technology%]&lt;/div&gt;&lt;br&gt;&lt;div&gt;&lt;font style=&quot;font-size: 11px&quot;&gt;%c4Description%&lt;/font&gt;&lt;/div&gt;" id="yd8mIZWFUKg9_xZ7_0ex-47">
          <mxCell style="rounded=1;whiteSpace=wrap;html=1;labelBackgroundColor=none;fillColor=#63BEF2;fontColor=#ffffff;align=center;arcSize=6;strokeColor=#2086C9;metaEdit=1;resizable=0;points=[[0.25,0,0],[0.5,0,0],[0.75,0,0],[1,0.25,0],[1,0.5,0],[1,0.75,0],[0.75,1,0],[0.5,1,0],[0.25,1,0],[0,0.75,0],[0,0.5,0],[0,0.25,0]];" parent="1" vertex="1">
            <mxGeometry x="4880" y="300" width="240" height="120" as="geometry" />
          </mxCell>
        </object>
        <object placeholders="1" c4Name="User Services" c4Type="Component" c4Technology="Spring Service" c4Description="Provides functionality related&#xa;to the business logic related &#xa;to users.&#xa;" label="&lt;font style=&quot;font-size: 16px&quot;&gt;&lt;b&gt;%c4Name%&lt;/b&gt;&lt;/font&gt;&lt;div&gt;[%c4Type%: %c4Technology%]&lt;/div&gt;&lt;br&gt;&lt;div&gt;&lt;font style=&quot;font-size: 11px&quot;&gt;%c4Description%&lt;/font&gt;&lt;/div&gt;" id="yd8mIZWFUKg9_xZ7_0ex-48">
          <mxCell style="rounded=1;whiteSpace=wrap;html=1;labelBackgroundColor=none;fillColor=#63BEF2;fontColor=#ffffff;align=center;arcSize=6;strokeColor=#2086C9;metaEdit=1;resizable=0;points=[[0.25,0,0],[0.5,0,0],[0.75,0,0],[1,0.25,0],[1,0.5,0],[1,0.75,0],[0.75,1,0],[0.5,1,0],[0.25,1,0],[0,0.75,0],[0,0.5,0],[0,0.25,0]];" parent="1" vertex="1">
            <mxGeometry x="3830" y="520" width="240" height="120" as="geometry" />
          </mxCell>
        </object>
        <object placeholders="1" c4Name="Concert Services" c4Type="Component" c4Technology="Spring Service" c4Description="Provides functionality related&#xa;to the business logic related &#xa;to concerts.&#xa;" label="&lt;font style=&quot;font-size: 16px&quot;&gt;&lt;b&gt;%c4Name%&lt;/b&gt;&lt;/font&gt;&lt;div&gt;[%c4Type%: %c4Technology%]&lt;/div&gt;&lt;br&gt;&lt;div&gt;&lt;font style=&quot;font-size: 11px&quot;&gt;%c4Description%&lt;/font&gt;&lt;/div&gt;" id="yd8mIZWFUKg9_xZ7_0ex-49">
          <mxCell style="rounded=1;whiteSpace=wrap;html=1;labelBackgroundColor=none;fillColor=#63BEF2;fontColor=#ffffff;align=center;arcSize=6;strokeColor=#2086C9;metaEdit=1;resizable=0;points=[[0.25,0,0],[0.5,0,0],[0.75,0,0],[1,0.25,0],[1,0.5,0],[1,0.75,0],[0.75,1,0],[0.5,1,0],[0.25,1,0],[0,0.75,0],[0,0.5,0],[0,0.25,0]];" parent="1" vertex="1">
            <mxGeometry x="4180" y="524" width="240" height="120" as="geometry" />
          </mxCell>
        </object>
        <object placeholders="1" c4Name="Order Services" c4Type="Component" c4Technology="Spring Service" c4Description="Provides functionality related&#xa;to the business logic related &#xa;to orders." label="&lt;font style=&quot;font-size: 16px&quot;&gt;&lt;b&gt;%c4Name%&lt;/b&gt;&lt;/font&gt;&lt;div&gt;[%c4Type%: %c4Technology%]&lt;/div&gt;&lt;br&gt;&lt;div&gt;&lt;font style=&quot;font-size: 11px&quot;&gt;%c4Description%&lt;/font&gt;&lt;/div&gt;" id="yd8mIZWFUKg9_xZ7_0ex-52">
          <mxCell style="rounded=1;whiteSpace=wrap;html=1;labelBackgroundColor=none;fillColor=#63BEF2;fontColor=#ffffff;align=center;arcSize=6;strokeColor=#2086C9;metaEdit=1;resizable=0;points=[[0.25,0,0],[0.5,0,0],[0.75,0,0],[1,0.25,0],[1,0.5,0],[1,0.75,0],[0.75,1,0],[0.5,1,0],[0.25,1,0],[0,0.75,0],[0,0.5,0],[0,0.25,0]];" parent="1" vertex="1">
            <mxGeometry x="4530" y="524" width="240" height="120" as="geometry" />
          </mxCell>
        </object>
        <object placeholders="1" c4Name="Ticket Services" c4Type="Component" c4Technology="Spring Service" c4Description="Provides functionality related&#xa;to the business logic related &#xa;to tickets.&#xa;" label="&lt;font style=&quot;font-size: 16px&quot;&gt;&lt;b&gt;%c4Name%&lt;/b&gt;&lt;/font&gt;&lt;div&gt;[%c4Type%: %c4Technology%]&lt;/div&gt;&lt;br&gt;&lt;div&gt;&lt;font style=&quot;font-size: 11px&quot;&gt;%c4Description%&lt;/font&gt;&lt;/div&gt;" id="yd8mIZWFUKg9_xZ7_0ex-53">
          <mxCell style="rounded=1;whiteSpace=wrap;html=1;labelBackgroundColor=none;fillColor=#63BEF2;fontColor=#ffffff;align=center;arcSize=6;strokeColor=#2086C9;metaEdit=1;resizable=0;points=[[0.25,0,0],[0.5,0,0],[0.75,0,0],[1,0.25,0],[1,0.5,0],[1,0.75,0],[0.75,1,0],[0.5,1,0],[0.25,1,0],[0,0.75,0],[0,0.5,0],[0,0.25,0]];" parent="1" vertex="1">
            <mxGeometry x="4880" y="520" width="240" height="120" as="geometry" />
          </mxCell>
        </object>
        <object placeholders="1" c4Type="Relationship" c4Description="Sends a request to" label="&lt;div style=&quot;text-align: left&quot;&gt;&lt;div style=&quot;text-align: center&quot;&gt;&lt;b&gt;%c4Description%&lt;/b&gt;&lt;/div&gt;" id="yd8mIZWFUKg9_xZ7_0ex-54">
          <mxCell style="endArrow=blockThin;html=1;fontSize=10;fontColor=#404040;strokeWidth=1;endFill=1;strokeColor=#828282;elbow=vertical;metaEdit=1;endSize=14;startSize=14;jumpStyle=arc;jumpSize=16;rounded=0;edgeStyle=orthogonalEdgeStyle;exitX=0.5;exitY=1;exitDx=0;exitDy=0;exitPerimeter=0;entryX=0.5;entryY=0;entryDx=0;entryDy=0;entryPerimeter=0;" parent="1" source="yd8mIZWFUKg9_xZ7_0ex-44" target="yd8mIZWFUKg9_xZ7_0ex-48" edge="1">
            <mxGeometry width="240" relative="1" as="geometry">
              <mxPoint x="4250" y="390" as="sourcePoint" />
              <mxPoint x="4490" y="390" as="targetPoint" />
              <mxPoint y="-1" as="offset" />
            </mxGeometry>
          </mxCell>
        </object>
        <object placeholders="1" c4Type="Relationship" c4Description="Sends a request to" label="&lt;div style=&quot;text-align: left&quot;&gt;&lt;div style=&quot;text-align: center&quot;&gt;&lt;b&gt;%c4Description%&lt;/b&gt;&lt;/div&gt;" id="yd8mIZWFUKg9_xZ7_0ex-55">
          <mxCell style="endArrow=blockThin;html=1;fontSize=10;fontColor=#404040;strokeWidth=1;endFill=1;strokeColor=#828282;elbow=vertical;metaEdit=1;endSize=14;startSize=14;jumpStyle=arc;jumpSize=16;rounded=0;edgeStyle=orthogonalEdgeStyle;exitX=0.5;exitY=1;exitDx=0;exitDy=0;exitPerimeter=0;entryX=0.5;entryY=0;entryDx=0;entryDy=0;entryPerimeter=0;" parent="1" source="yd8mIZWFUKg9_xZ7_0ex-45" target="yd8mIZWFUKg9_xZ7_0ex-49" edge="1">
            <mxGeometry width="240" relative="1" as="geometry">
              <mxPoint x="3960" y="430" as="sourcePoint" />
              <mxPoint x="3960" y="510" as="targetPoint" />
            </mxGeometry>
          </mxCell>
        </object>
        <object placeholders="1" c4Type="Relationship" c4Description="Sends a request to" label="&lt;div style=&quot;text-align: left&quot;&gt;&lt;div style=&quot;text-align: center&quot;&gt;&lt;b&gt;%c4Description%&lt;/b&gt;&lt;/div&gt;" id="yd8mIZWFUKg9_xZ7_0ex-56">
          <mxCell style="endArrow=blockThin;html=1;fontSize=10;fontColor=#404040;strokeWidth=1;endFill=1;strokeColor=#828282;elbow=vertical;metaEdit=1;endSize=14;startSize=14;jumpStyle=arc;jumpSize=16;rounded=0;edgeStyle=orthogonalEdgeStyle;exitX=0.5;exitY=1;exitDx=0;exitDy=0;exitPerimeter=0;entryX=0.5;entryY=0;entryDx=0;entryDy=0;entryPerimeter=0;" parent="1" source="yd8mIZWFUKg9_xZ7_0ex-46" target="yd8mIZWFUKg9_xZ7_0ex-52" edge="1">
            <mxGeometry width="240" relative="1" as="geometry">
              <mxPoint x="3970" y="440" as="sourcePoint" />
              <mxPoint x="3970" y="520" as="targetPoint" />
            </mxGeometry>
          </mxCell>
        </object>
        <object placeholders="1" c4Type="Relationship" c4Description="Sends a request to" label="&lt;div style=&quot;text-align: left&quot;&gt;&lt;div style=&quot;text-align: center&quot;&gt;&lt;b&gt;%c4Description%&lt;/b&gt;&lt;/div&gt;" id="yd8mIZWFUKg9_xZ7_0ex-57">
          <mxCell style="endArrow=blockThin;html=1;fontSize=10;fontColor=#404040;strokeWidth=1;endFill=1;strokeColor=#828282;elbow=vertical;metaEdit=1;endSize=14;startSize=14;jumpStyle=arc;jumpSize=16;rounded=0;edgeStyle=orthogonalEdgeStyle;exitX=0.5;exitY=1;exitDx=0;exitDy=0;exitPerimeter=0;entryX=0.5;entryY=0;entryDx=0;entryDy=0;entryPerimeter=0;" parent="1" source="yd8mIZWFUKg9_xZ7_0ex-47" target="yd8mIZWFUKg9_xZ7_0ex-53" edge="1">
            <mxGeometry width="240" relative="1" as="geometry">
              <mxPoint x="3980" y="450" as="sourcePoint" />
              <mxPoint x="3980" y="530" as="targetPoint" />
            </mxGeometry>
          </mxCell>
        </object>
        <object placeholders="1" c4Name="User Repository" c4Type="Component" c4Technology="Spring Repository" c4Description="Provides functionality to&#xa;read from and write to&#xa;the database." label="&lt;font style=&quot;font-size: 16px&quot;&gt;&lt;b&gt;%c4Name%&lt;/b&gt;&lt;/font&gt;&lt;div&gt;[%c4Type%: %c4Technology%]&lt;/div&gt;&lt;br&gt;&lt;div&gt;&lt;font style=&quot;font-size: 11px&quot;&gt;%c4Description%&lt;/font&gt;&lt;/div&gt;" id="yd8mIZWFUKg9_xZ7_0ex-58">
          <mxCell style="rounded=1;whiteSpace=wrap;html=1;labelBackgroundColor=none;fillColor=#63BEF2;fontColor=#ffffff;align=center;arcSize=6;strokeColor=#2086C9;metaEdit=1;resizable=0;points=[[0.25,0,0],[0.5,0,0],[0.75,0,0],[1,0.25,0],[1,0.5,0],[1,0.75,0],[0.75,1,0],[0.5,1,0],[0.25,1,0],[0,0.75,0],[0,0.5,0],[0,0.25,0]];" parent="1" vertex="1">
            <mxGeometry x="3830" y="740" width="240" height="120" as="geometry" />
          </mxCell>
        </object>
        <object placeholders="1" c4Type="Relationship" c4Description="Sends a request to" label="&lt;div style=&quot;text-align: left&quot;&gt;&lt;div style=&quot;text-align: center&quot;&gt;&lt;b&gt;%c4Description%&lt;/b&gt;&lt;/div&gt;" id="yd8mIZWFUKg9_xZ7_0ex-59">
          <mxCell style="endArrow=blockThin;html=1;fontSize=10;fontColor=#404040;strokeWidth=1;endFill=1;strokeColor=#828282;elbow=vertical;metaEdit=1;endSize=14;startSize=14;jumpStyle=arc;jumpSize=16;rounded=0;edgeStyle=orthogonalEdgeStyle;" parent="1" edge="1">
            <mxGeometry width="240" relative="1" as="geometry">
              <mxPoint x="3949" y="640" as="sourcePoint" />
              <mxPoint x="3949" y="740" as="targetPoint" />
            </mxGeometry>
          </mxCell>
        </object>
        <object placeholders="1" c4Name="Concert Repository" c4Type="Component" c4Technology="Spring Repository" c4Description="Provides functionality to&#xa;read from and write to&#xa;the database." label="&lt;font style=&quot;font-size: 16px&quot;&gt;&lt;b&gt;%c4Name%&lt;/b&gt;&lt;/font&gt;&lt;div&gt;[%c4Type%: %c4Technology%]&lt;/div&gt;&lt;br&gt;&lt;div&gt;&lt;font style=&quot;font-size: 11px&quot;&gt;%c4Description%&lt;/font&gt;&lt;/div&gt;" id="yd8mIZWFUKg9_xZ7_0ex-60">
          <mxCell style="rounded=1;whiteSpace=wrap;html=1;labelBackgroundColor=none;fillColor=#63BEF2;fontColor=#ffffff;align=center;arcSize=6;strokeColor=#2086C9;metaEdit=1;resizable=0;points=[[0.25,0,0],[0.5,0,0],[0.75,0,0],[1,0.25,0],[1,0.5,0],[1,0.75,0],[0.75,1,0],[0.5,1,0],[0.25,1,0],[0,0.75,0],[0,0.5,0],[0,0.25,0]];" parent="1" vertex="1">
            <mxGeometry x="4180" y="740" width="240" height="120" as="geometry" />
          </mxCell>
        </object>
        <object placeholders="1" c4Name="Order Repository" c4Type="Component" c4Technology="Spring Repository" c4Description="Provides functionality to&#xa;read from and write to&#xa;the database." label="&lt;font style=&quot;font-size: 16px&quot;&gt;&lt;b&gt;%c4Name%&lt;/b&gt;&lt;/font&gt;&lt;div&gt;[%c4Type%: %c4Technology%]&lt;/div&gt;&lt;br&gt;&lt;div&gt;&lt;font style=&quot;font-size: 11px&quot;&gt;%c4Description%&lt;/font&gt;&lt;/div&gt;" id="yd8mIZWFUKg9_xZ7_0ex-61">
          <mxCell style="rounded=1;whiteSpace=wrap;html=1;labelBackgroundColor=none;fillColor=#63BEF2;fontColor=#ffffff;align=center;arcSize=6;strokeColor=#2086C9;metaEdit=1;resizable=0;points=[[0.25,0,0],[0.5,0,0],[0.75,0,0],[1,0.25,0],[1,0.5,0],[1,0.75,0],[0.75,1,0],[0.5,1,0],[0.25,1,0],[0,0.75,0],[0,0.5,0],[0,0.25,0]];" parent="1" vertex="1">
            <mxGeometry x="4530" y="740" width="240" height="120" as="geometry" />
          </mxCell>
        </object>
        <object placeholders="1" c4Name="Ticket Repository" c4Type="Component" c4Technology="Spring Repository" c4Description="Provides functionality to&#xa;read from and write to&#xa;the database." label="&lt;font style=&quot;font-size: 16px&quot;&gt;&lt;b&gt;%c4Name%&lt;/b&gt;&lt;/font&gt;&lt;div&gt;[%c4Type%: %c4Technology%]&lt;/div&gt;&lt;br&gt;&lt;div&gt;&lt;font style=&quot;font-size: 11px&quot;&gt;%c4Description%&lt;/font&gt;&lt;/div&gt;" id="yd8mIZWFUKg9_xZ7_0ex-62">
          <mxCell style="rounded=1;whiteSpace=wrap;html=1;labelBackgroundColor=none;fillColor=#63BEF2;fontColor=#ffffff;align=center;arcSize=6;strokeColor=#2086C9;metaEdit=1;resizable=0;points=[[0.25,0,0],[0.5,0,0],[0.75,0,0],[1,0.25,0],[1,0.5,0],[1,0.75,0],[0.75,1,0],[0.5,1,0],[0.25,1,0],[0,0.75,0],[0,0.5,0],[0,0.25,0]];" parent="1" vertex="1">
            <mxGeometry x="4880" y="740" width="240" height="120" as="geometry" />
          </mxCell>
        </object>
        <object placeholders="1" c4Type="Relationship" c4Description="Sends a request to" label="&lt;div style=&quot;text-align: left&quot;&gt;&lt;div style=&quot;text-align: center&quot;&gt;&lt;b&gt;%c4Description%&lt;/b&gt;&lt;/div&gt;" id="yd8mIZWFUKg9_xZ7_0ex-63">
          <mxCell style="endArrow=blockThin;html=1;fontSize=10;fontColor=#404040;strokeWidth=1;endFill=1;strokeColor=#828282;elbow=vertical;metaEdit=1;endSize=14;startSize=14;jumpStyle=arc;jumpSize=16;rounded=0;edgeStyle=orthogonalEdgeStyle;" parent="1" edge="1">
            <mxGeometry width="240" relative="1" as="geometry">
              <mxPoint x="4299.47" y="640" as="sourcePoint" />
              <mxPoint x="4299.47" y="740" as="targetPoint" />
            </mxGeometry>
          </mxCell>
        </object>
        <object placeholders="1" c4Type="Relationship" c4Description="Sends a request to" label="&lt;div style=&quot;text-align: left&quot;&gt;&lt;div style=&quot;text-align: center&quot;&gt;&lt;b&gt;%c4Description%&lt;/b&gt;&lt;/div&gt;" id="yd8mIZWFUKg9_xZ7_0ex-64">
          <mxCell style="endArrow=blockThin;html=1;fontSize=10;fontColor=#404040;strokeWidth=1;endFill=1;strokeColor=#828282;elbow=vertical;metaEdit=1;endSize=14;startSize=14;jumpStyle=arc;jumpSize=16;rounded=0;edgeStyle=orthogonalEdgeStyle;" parent="1" edge="1">
            <mxGeometry width="240" relative="1" as="geometry">
              <mxPoint x="4649.47" y="644" as="sourcePoint" />
              <mxPoint x="4649" y="740" as="targetPoint" />
            </mxGeometry>
          </mxCell>
        </object>
        <object placeholders="1" c4Type="Relationship" c4Description="Sends a request to" label="&lt;div style=&quot;text-align: left&quot;&gt;&lt;div style=&quot;text-align: center&quot;&gt;&lt;b&gt;%c4Description%&lt;/b&gt;&lt;/div&gt;" id="yd8mIZWFUKg9_xZ7_0ex-65">
          <mxCell style="endArrow=blockThin;html=1;fontSize=10;fontColor=#404040;strokeWidth=1;endFill=1;strokeColor=#828282;elbow=vertical;metaEdit=1;endSize=14;startSize=14;jumpStyle=arc;jumpSize=16;rounded=0;edgeStyle=orthogonalEdgeStyle;" parent="1" edge="1">
            <mxGeometry width="240" relative="1" as="geometry">
              <mxPoint x="4999.820000000001" y="640" as="sourcePoint" />
              <mxPoint x="4999.820000000001" y="740" as="targetPoint" />
            </mxGeometry>
          </mxCell>
        </object>
        <object placeholders="1" c4Type="Database" c4Container="Container" c4Technology="MySQL" c4Description="Stores the data of users, &#xa;concerts, orders and tickets" label="&lt;font style=&quot;font-size: 16px&quot;&gt;&lt;b&gt;%c4Type%&lt;/b&gt;&lt;/font&gt;&lt;div&gt;[%c4Container%:&amp;nbsp;%c4Technology%]&lt;/div&gt;&lt;br&gt;&lt;div&gt;&lt;font style=&quot;font-size: 11px&quot;&gt;&lt;font color=&quot;#E6E6E6&quot;&gt;%c4Description%&lt;/font&gt;&lt;/div&gt;" id="yd8mIZWFUKg9_xZ7_0ex-66">
          <mxCell style="shape=cylinder3;size=15;whiteSpace=wrap;html=1;boundedLbl=1;rounded=0;labelBackgroundColor=none;fillColor=#23A2D9;fontSize=12;fontColor=#ffffff;align=center;strokeColor=#0E7DAD;metaEdit=1;points=[[0.5,0,0],[1,0.25,0],[1,0.5,0],[1,0.75,0],[0.5,1,0],[0,0.75,0],[0,0.5,0],[0,0.25,0]];resizable=0;" parent="1" vertex="1">
            <mxGeometry x="4360" y="1100" width="240" height="120" as="geometry" />
          </mxCell>
        </object>
        <object placeholders="1" c4Type="Relationship" id="yd8mIZWFUKg9_xZ7_0ex-69">
          <mxCell style="endArrow=blockThin;html=1;fontSize=10;fontColor=#404040;strokeWidth=1;endFill=1;strokeColor=#828282;elbow=vertical;metaEdit=1;endSize=14;startSize=14;jumpStyle=arc;jumpSize=16;rounded=0;edgeStyle=orthogonalEdgeStyle;exitX=0.5;exitY=1;exitDx=0;exitDy=0;exitPerimeter=0;entryX=0.5;entryY=0;entryDx=0;entryDy=0;entryPerimeter=0;" parent="1" source="yd8mIZWFUKg9_xZ7_0ex-60" target="yd8mIZWFUKg9_xZ7_0ex-66" edge="1">
            <mxGeometry width="240" relative="1" as="geometry">
              <mxPoint x="4270" y="900" as="sourcePoint" />
              <mxPoint x="4510" y="900" as="targetPoint" />
              <Array as="points">
                <mxPoint x="4300" y="970" />
                <mxPoint x="4480" y="970" />
              </Array>
            </mxGeometry>
          </mxCell>
        </object>
        <mxCell id="hAX12gE_xkIKobP7N-9E-11" value="Saves and updates concert information&lt;br style=&quot;border-color: var(--border-color);&quot;&gt;in the database using" style="edgeLabel;html=1;align=center;verticalAlign=middle;resizable=0;points=[];" parent="yd8mIZWFUKg9_xZ7_0ex-69" vertex="1" connectable="0">
          <mxGeometry x="-0.8468" y="1" relative="1" as="geometry">
            <mxPoint x="-1" y="5" as="offset" />
          </mxGeometry>
        </mxCell>
        <object placeholders="1" c4Type="Relationship" id="yd8mIZWFUKg9_xZ7_0ex-70">
          <mxCell style="endArrow=blockThin;html=1;fontSize=10;fontColor=#404040;strokeWidth=1;endFill=1;strokeColor=#828282;elbow=vertical;metaEdit=1;endSize=14;startSize=14;jumpStyle=arc;jumpSize=16;rounded=0;edgeStyle=orthogonalEdgeStyle;entryX=0.5;entryY=0;entryDx=0;entryDy=0;entryPerimeter=0;exitX=0.5;exitY=1;exitDx=0;exitDy=0;exitPerimeter=0;" parent="1" source="yd8mIZWFUKg9_xZ7_0ex-61" target="yd8mIZWFUKg9_xZ7_0ex-66" edge="1">
            <mxGeometry width="240" relative="1" as="geometry">
              <mxPoint x="4420" y="900" as="sourcePoint" />
              <mxPoint x="4660" y="900" as="targetPoint" />
              <Array as="points">
                <mxPoint x="4650" y="970" />
                <mxPoint x="4480" y="970" />
              </Array>
            </mxGeometry>
          </mxCell>
        </object>
        <mxCell id="hAX12gE_xkIKobP7N-9E-12" value="Saves and retrieved order &lt;br&gt;information in the database using" style="edgeLabel;html=1;align=center;verticalAlign=middle;resizable=0;points=[];" parent="yd8mIZWFUKg9_xZ7_0ex-70" vertex="1" connectable="0">
          <mxGeometry x="-0.7907" y="1" relative="1" as="geometry">
            <mxPoint x="-1" y="-6" as="offset" />
          </mxGeometry>
        </mxCell>
        <object placeholders="1" c4Type="Relationship" id="yd8mIZWFUKg9_xZ7_0ex-71">
          <mxCell style="endArrow=blockThin;html=1;fontSize=10;fontColor=#404040;strokeWidth=1;endFill=1;strokeColor=#828282;elbow=vertical;metaEdit=1;endSize=14;startSize=14;jumpStyle=arc;jumpSize=16;rounded=0;edgeStyle=orthogonalEdgeStyle;entryX=0.5;entryY=0;entryDx=0;entryDy=0;entryPerimeter=0;exitX=0.533;exitY=1.025;exitDx=0;exitDy=0;exitPerimeter=0;" parent="1" source="yd8mIZWFUKg9_xZ7_0ex-62" target="yd8mIZWFUKg9_xZ7_0ex-66" edge="1">
            <mxGeometry width="240" relative="1" as="geometry">
              <mxPoint x="4650" y="900" as="sourcePoint" />
              <mxPoint x="4890" y="900" as="targetPoint" />
              <Array as="points">
                <mxPoint x="5008" y="970" />
                <mxPoint x="4480" y="970" />
              </Array>
            </mxGeometry>
          </mxCell>
        </object>
        <mxCell id="hAX12gE_xkIKobP7N-9E-13" value="Saves, updates and retrieves&lt;br&gt;ticket information in the database using" style="edgeLabel;html=1;align=center;verticalAlign=middle;resizable=0;points=[];" parent="yd8mIZWFUKg9_xZ7_0ex-71" vertex="1" connectable="0">
          <mxGeometry x="-0.8864" relative="1" as="geometry">
            <mxPoint y="-8" as="offset" />
          </mxGeometry>
        </mxCell>
        <object placeholders="1" c4Type="Relationship" id="hAX12gE_xkIKobP7N-9E-4">
          <mxCell style="endArrow=blockThin;html=1;fontSize=10;fontColor=#404040;strokeWidth=1;endFill=1;strokeColor=#828282;elbow=vertical;metaEdit=1;endSize=14;startSize=14;jumpStyle=arc;jumpSize=16;rounded=0;edgeStyle=orthogonalEdgeStyle;entryX=0.5;entryY=0;entryDx=0;entryDy=0;entryPerimeter=0;exitX=0.5;exitY=1;exitDx=0;exitDy=0;exitPerimeter=0;" parent="1" source="t7JAlR705H4Pw7hRAmGM-2" target="yd8mIZWFUKg9_xZ7_0ex-44" edge="1">
            <mxGeometry width="240" relative="1" as="geometry">
              <mxPoint x="4480" y="30" as="sourcePoint" />
              <mxPoint x="4680" y="340" as="targetPoint" />
              <Array as="points">
                <mxPoint x="4480" y="120" />
                <mxPoint x="3950" y="120" />
              </Array>
            </mxGeometry>
          </mxCell>
        </object>
        <mxCell id="hAX12gE_xkIKobP7N-9E-5" value="Makes API calls for&lt;br&gt;creating, deleting and&lt;br style=&quot;border-color: var(--border-color);&quot;&gt;updating to&lt;br style=&quot;border-color: var(--border-color);&quot;&gt;[JSON/HTTP]" style="edgeLabel;html=1;align=center;verticalAlign=middle;resizable=0;points=[];" parent="hAX12gE_xkIKobP7N-9E-4" vertex="1" connectable="0">
          <mxGeometry x="0.8441" y="-3" relative="1" as="geometry">
            <mxPoint as="offset" />
          </mxGeometry>
        </mxCell>
        <object placeholders="1" c4Type="Relationship" id="hAX12gE_xkIKobP7N-9E-8">
          <mxCell style="endArrow=blockThin;html=1;fontSize=10;fontColor=#404040;strokeWidth=1;endFill=1;strokeColor=#828282;elbow=vertical;metaEdit=1;endSize=14;startSize=14;jumpStyle=arc;jumpSize=16;rounded=0;edgeStyle=orthogonalEdgeStyle;exitX=0.5;exitY=1;exitDx=0;exitDy=0;exitPerimeter=0;entryX=0.5;entryY=0;entryDx=0;entryDy=0;entryPerimeter=0;" parent="1" source="yd8mIZWFUKg9_xZ7_0ex-58" target="yd8mIZWFUKg9_xZ7_0ex-66" edge="1">
            <mxGeometry width="240" relative="1" as="geometry">
              <mxPoint x="4300" y="950" as="sourcePoint" />
              <mxPoint x="4540" y="950" as="targetPoint" />
              <Array as="points">
                <mxPoint x="3950" y="970" />
                <mxPoint x="4480" y="970" />
              </Array>
            </mxGeometry>
          </mxCell>
        </object>
        <mxCell id="hAX12gE_xkIKobP7N-9E-9" value="Saves, updates, deletes, and retrieves&amp;nbsp; &lt;br&gt;user information from&amp;nbsp;the database using" style="edgeLabel;html=1;align=center;verticalAlign=middle;resizable=0;points=[];" parent="hAX12gE_xkIKobP7N-9E-8" vertex="1" connectable="0">
          <mxGeometry x="-0.8875" y="-2" relative="1" as="geometry">
            <mxPoint x="2" y="-5" as="offset" />
          </mxGeometry>
        </mxCell>
        <mxCell id="t7JAlR705H4Pw7hRAmGM-1" value="&lt;font style=&quot;font-size: 48px;&quot;&gt;Backend&lt;/font&gt;" style="text;html=1;strokeColor=none;fillColor=none;align=center;verticalAlign=middle;whiteSpace=wrap;rounded=0;" parent="1" vertex="1">
          <mxGeometry x="3600" y="-107.5" width="210" height="55" as="geometry" />
        </mxCell>
        <object placeholders="1" c4Name="Backend application" c4Type="[Container: Java Spring Boot + REST]" c4Description="Provides all the platform business&#xa;functionality to manipulate the database." label="&lt;font style=&quot;font-size: 16px&quot;&gt;&lt;b&gt;%c4Name%&lt;/b&gt;&lt;/font&gt;&lt;div&gt;[%c4Type%]&lt;/div&gt;&lt;br&gt;&lt;div&gt;&lt;font style=&quot;font-size: 11px&quot;&gt;&lt;font color=&quot;#cccccc&quot;&gt;%c4Description%&lt;/font&gt;&lt;/div&gt;" id="t7JAlR705H4Pw7hRAmGM-2">
          <mxCell style="rounded=1;whiteSpace=wrap;html=1;labelBackgroundColor=none;fillColor=#1061B0;fontColor=#ffffff;align=center;arcSize=10;strokeColor=#0D5091;metaEdit=1;resizable=0;points=[[0.25,0,0],[0.5,0,0],[0.75,0,0],[1,0.25,0],[1,0.5,0],[1,0.75,0],[0.75,1,0],[0.5,1,0],[0.25,1,0],[0,0.75,0],[0,0.5,0],[0,0.25,0]];" parent="1" vertex="1">
            <mxGeometry x="4360" y="-80" width="240" height="120" as="geometry" />
          </mxCell>
        </object>
        <mxCell id="t7JAlR705H4Pw7hRAmGM-3" value="&lt;font style=&quot;font-size: 36px;&quot;&gt;C3&lt;br&gt;&lt;/font&gt;" style="ellipse;whiteSpace=wrap;html=1;aspect=fixed;" parent="1" vertex="1">
          <mxGeometry x="3490" y="-1520" width="80" height="80" as="geometry" />
        </mxCell>
        <object placeholders="1" c4Name="Ticket System" c4Type="ContainerScopeBoundary" c4Application="Frontend Application" label="&lt;font style=&quot;font-size: 16px&quot;&gt;&lt;b&gt;&lt;div style=&quot;text-align: left&quot;&gt;%c4Name%&lt;/div&gt;&lt;/b&gt;&lt;/font&gt;&lt;div style=&quot;text-align: left&quot;&gt;[%c4Application%]&lt;/div&gt;" id="t7JAlR705H4Pw7hRAmGM-4">
          <mxCell style="rounded=1;fontSize=11;whiteSpace=wrap;html=1;dashed=1;arcSize=20;fillColor=none;strokeColor=#666666;fontColor=#333333;labelBackgroundColor=none;align=left;verticalAlign=bottom;labelBorderColor=none;spacingTop=0;spacing=10;dashPattern=8 4;metaEdit=1;rotatable=0;perimeter=rectanglePerimeter;noLabel=0;labelPadding=0;allowArrows=0;connectable=0;expand=0;recursiveResize=0;editable=1;pointerEvents=0;absoluteArcSize=1;points=[[0.25,0,0],[0.5,0,0],[0.75,0,0],[1,0.25,0],[1,0.5,0],[1,0.75,0],[0.75,1,0],[0.5,1,0],[0.25,1,0],[0,0.75,0],[0,0.5,0],[0,0.25,0]];" parent="1" vertex="1">
            <mxGeometry x="3750" y="-1210" width="1440" height="590" as="geometry" />
          </mxCell>
        </object>
        <object placeholders="1" c4Type="Relationship" id="t7JAlR705H4Pw7hRAmGM-5">
          <mxCell style="endArrow=blockThin;html=1;fontSize=10;fontColor=#404040;strokeWidth=1;endFill=1;strokeColor=#828282;elbow=vertical;metaEdit=1;endSize=14;startSize=14;jumpStyle=arc;jumpSize=16;rounded=0;edgeStyle=orthogonalEdgeStyle;entryX=0.5;entryY=0;entryDx=0;entryDy=0;entryPerimeter=0;" parent="1" edge="1">
            <mxGeometry width="240" relative="1" as="geometry">
              <mxPoint x="4480" y="-1370" as="sourcePoint" />
              <mxPoint x="4300" y="-1100" as="targetPoint" />
              <Array as="points">
                <mxPoint x="4480" y="-1280" />
                <mxPoint x="4300" y="-1280" />
              </Array>
            </mxGeometry>
          </mxCell>
        </object>
        <mxCell id="t7JAlR705H4Pw7hRAmGM-6" value="Makes a call to&lt;br style=&quot;border-color: var(--border-color);&quot;&gt;render the required&lt;br style=&quot;border-color: var(--border-color);&quot;&gt;web page" style="edgeLabel;html=1;align=center;verticalAlign=middle;resizable=0;points=[];" parent="t7JAlR705H4Pw7hRAmGM-5" vertex="1" connectable="0">
          <mxGeometry x="0.7436" y="1" relative="1" as="geometry">
            <mxPoint x="-1" as="offset" />
          </mxGeometry>
        </mxCell>
        <object placeholders="1" c4Type="Relationship" id="t7JAlR705H4Pw7hRAmGM-7">
          <mxCell style="endArrow=blockThin;html=1;fontSize=10;fontColor=#404040;strokeWidth=1;endFill=1;strokeColor=#828282;elbow=vertical;metaEdit=1;endSize=14;startSize=14;jumpStyle=arc;jumpSize=16;rounded=0;edgeStyle=orthogonalEdgeStyle;entryX=0.5;entryY=0;entryDx=0;entryDy=0;entryPerimeter=0;" parent="1" target="t7JAlR705H4Pw7hRAmGM-13" edge="1">
            <mxGeometry width="240" relative="1" as="geometry">
              <mxPoint x="4480" y="-1370" as="sourcePoint" />
              <mxPoint x="4650" y="-1160" as="targetPoint" />
              <Array as="points">
                <mxPoint x="4480" y="-1280" />
                <mxPoint x="4650" y="-1280" />
              </Array>
            </mxGeometry>
          </mxCell>
        </object>
        <mxCell id="t7JAlR705H4Pw7hRAmGM-8" value="Makes a call to&lt;br style=&quot;border-color: var(--border-color);&quot;&gt;render the required&lt;br style=&quot;border-color: var(--border-color);&quot;&gt;web page" style="edgeLabel;html=1;align=center;verticalAlign=middle;resizable=0;points=[];" parent="t7JAlR705H4Pw7hRAmGM-7" vertex="1" connectable="0">
          <mxGeometry x="0.6687" y="2" relative="1" as="geometry">
            <mxPoint x="-2" y="13" as="offset" />
          </mxGeometry>
        </mxCell>
        <object placeholders="1" c4Type="Relationship" id="t7JAlR705H4Pw7hRAmGM-9">
          <mxCell style="endArrow=blockThin;html=1;fontSize=10;fontColor=#404040;strokeWidth=1;endFill=1;strokeColor=#828282;elbow=vertical;metaEdit=1;endSize=14;startSize=14;jumpStyle=arc;jumpSize=16;rounded=0;edgeStyle=orthogonalEdgeStyle;entryX=0.5;entryY=0;entryDx=0;entryDy=0;entryPerimeter=0;" parent="1" edge="1">
            <mxGeometry width="240" relative="1" as="geometry">
              <mxPoint x="4480" y="-1370" as="sourcePoint" />
              <mxPoint x="5000" y="-1100" as="targetPoint" />
              <Array as="points">
                <mxPoint x="4480" y="-1280" />
                <mxPoint x="5000" y="-1280" />
              </Array>
            </mxGeometry>
          </mxCell>
        </object>
        <mxCell id="t7JAlR705H4Pw7hRAmGM-10" value="Makes a call to&lt;br style=&quot;border-color: var(--border-color);&quot;&gt;render the required&lt;br style=&quot;border-color: var(--border-color);&quot;&gt;web page" style="edgeLabel;html=1;align=center;verticalAlign=middle;resizable=0;points=[];" parent="t7JAlR705H4Pw7hRAmGM-9" vertex="1" connectable="0">
          <mxGeometry x="0.8394" y="-3" relative="1" as="geometry">
            <mxPoint as="offset" />
          </mxGeometry>
        </mxCell>
        <object placeholders="1" c4Name="Orders Page" c4Type="Components" c4Technology="HTML, JavaScript and CSS" c4Description="Shows the user all of the orders&#xa;that they have made (for both upcoming and past events)" label="&lt;font style=&quot;font-size: 16px&quot;&gt;&lt;b&gt;%c4Name%&lt;/b&gt;&lt;/font&gt;&lt;div&gt;[%c4Type%: %c4Technology%]&lt;/div&gt;&lt;br&gt;&lt;div&gt;&lt;font style=&quot;font-size: 11px&quot;&gt;%c4Description%&lt;/font&gt;&lt;/div&gt;" id="t7JAlR705H4Pw7hRAmGM-13">
          <mxCell style="rounded=1;whiteSpace=wrap;html=1;labelBackgroundColor=none;fillColor=#63BEF2;fontColor=#ffffff;align=center;arcSize=6;strokeColor=#2086C9;metaEdit=1;resizable=0;points=[[0.25,0,0],[0.5,0,0],[0.75,0,0],[1,0.25,0],[1,0.5,0],[1,0.75,0],[0.75,1,0],[0.5,1,0],[0.25,1,0],[0,0.75,0],[0,0.5,0],[0,0.25,0]];" parent="1" vertex="1">
            <mxGeometry x="4530" y="-1100" width="240" height="120" as="geometry" />
          </mxCell>
        </object>
        <object placeholders="1" c4Name="Tickets Page" c4Type="Components" c4Technology="HTML, JavaScript and CSS" c4Description="Allow users to view the tickets &#xa;rendered from an order" label="&lt;font style=&quot;font-size: 16px&quot;&gt;&lt;b&gt;%c4Name%&lt;/b&gt;&lt;/font&gt;&lt;div&gt;[%c4Type%: %c4Technology%]&lt;/div&gt;&lt;br&gt;&lt;div&gt;&lt;font style=&quot;font-size: 11px&quot;&gt;%c4Description%&lt;/font&gt;&lt;/div&gt;" id="t7JAlR705H4Pw7hRAmGM-14">
          <mxCell style="rounded=1;whiteSpace=wrap;html=1;labelBackgroundColor=none;fillColor=#63BEF2;fontColor=#ffffff;align=center;arcSize=6;strokeColor=#2086C9;metaEdit=1;resizable=0;points=[[0.25,0,0],[0.5,0,0],[0.75,0,0],[1,0.25,0],[1,0.5,0],[1,0.75,0],[0.75,1,0],[0.5,1,0],[0.25,1,0],[0,0.75,0],[0,0.5,0],[0,0.25,0]];" parent="1" vertex="1">
            <mxGeometry x="4880" y="-1100" width="240" height="120" as="geometry" />
          </mxCell>
        </object>
        <object placeholders="1" c4Name="Order Services" c4Type="Component" c4Technology="JavaScript" c4Description="Serves as a connection between the frontend and the backend of the application.&#xa;" label="&lt;font style=&quot;font-size: 16px&quot;&gt;&lt;b&gt;%c4Name%&lt;/b&gt;&lt;/font&gt;&lt;div&gt;[%c4Type%: %c4Technology%]&lt;/div&gt;&lt;br&gt;&lt;div&gt;&lt;font style=&quot;font-size: 11px&quot;&gt;%c4Description%&lt;/font&gt;&lt;/div&gt;" id="t7JAlR705H4Pw7hRAmGM-17">
          <mxCell style="rounded=1;whiteSpace=wrap;html=1;labelBackgroundColor=none;fillColor=#63BEF2;fontColor=#ffffff;align=center;arcSize=6;strokeColor=#2086C9;metaEdit=1;resizable=0;points=[[0.25,0,0],[0.5,0,0],[0.75,0,0],[1,0.25,0],[1,0.5,0],[1,0.75,0],[0.75,1,0],[0.5,1,0],[0.25,1,0],[0,0.75,0],[0,0.5,0],[0,0.25,0]];" parent="1" vertex="1">
            <mxGeometry x="4530" y="-876" width="240" height="120" as="geometry" />
          </mxCell>
        </object>
        <object placeholders="1" c4Name="Ticket Services" c4Type="Component" c4Technology="JavaScript" c4Description="Serves as a connection between the frontend and the backend of the application." label="&lt;font style=&quot;font-size: 16px&quot;&gt;&lt;b&gt;%c4Name%&lt;/b&gt;&lt;/font&gt;&lt;div&gt;[%c4Type%: %c4Technology%]&lt;/div&gt;&lt;br&gt;&lt;div&gt;&lt;font style=&quot;font-size: 11px&quot;&gt;%c4Description%&lt;/font&gt;&lt;/div&gt;" id="t7JAlR705H4Pw7hRAmGM-18">
          <mxCell style="rounded=1;whiteSpace=wrap;html=1;labelBackgroundColor=none;fillColor=#63BEF2;fontColor=#ffffff;align=center;arcSize=6;strokeColor=#2086C9;metaEdit=1;resizable=0;points=[[0.25,0,0],[0.5,0,0],[0.75,0,0],[1,0.25,0],[1,0.5,0],[1,0.75,0],[0.75,1,0],[0.5,1,0],[0.25,1,0],[0,0.75,0],[0,0.5,0],[0,0.25,0]];" parent="1" vertex="1">
            <mxGeometry x="4880" y="-880" width="240" height="120" as="geometry" />
          </mxCell>
        </object>
        <object placeholders="1" c4Type="Relationship" c4Description="Sends a request to" label="&lt;div style=&quot;text-align: left&quot;&gt;&lt;div style=&quot;text-align: center&quot;&gt;&lt;b&gt;%c4Description%&lt;/b&gt;&lt;/div&gt;" id="t7JAlR705H4Pw7hRAmGM-21">
          <mxCell style="endArrow=blockThin;html=1;fontSize=10;fontColor=#404040;strokeWidth=1;endFill=1;strokeColor=#828282;elbow=vertical;metaEdit=1;endSize=14;startSize=14;jumpStyle=arc;jumpSize=16;rounded=0;edgeStyle=orthogonalEdgeStyle;exitX=0.5;exitY=1;exitDx=0;exitDy=0;exitPerimeter=0;entryX=0.5;entryY=0;entryDx=0;entryDy=0;entryPerimeter=0;" parent="1" source="t7JAlR705H4Pw7hRAmGM-13" target="t7JAlR705H4Pw7hRAmGM-17" edge="1">
            <mxGeometry width="240" relative="1" as="geometry">
              <mxPoint x="3970" y="-960" as="sourcePoint" />
              <mxPoint x="3970" y="-880" as="targetPoint" />
            </mxGeometry>
          </mxCell>
        </object>
        <object placeholders="1" c4Type="Relationship" c4Description="Sends a request to" label="&lt;div style=&quot;text-align: left&quot;&gt;&lt;div style=&quot;text-align: center&quot;&gt;&lt;b&gt;%c4Description%&lt;/b&gt;&lt;/div&gt;" id="t7JAlR705H4Pw7hRAmGM-22">
          <mxCell style="endArrow=blockThin;html=1;fontSize=10;fontColor=#404040;strokeWidth=1;endFill=1;strokeColor=#828282;elbow=vertical;metaEdit=1;endSize=14;startSize=14;jumpStyle=arc;jumpSize=16;rounded=0;edgeStyle=orthogonalEdgeStyle;exitX=0.5;exitY=1;exitDx=0;exitDy=0;exitPerimeter=0;entryX=0.5;entryY=0;entryDx=0;entryDy=0;entryPerimeter=0;" parent="1" source="t7JAlR705H4Pw7hRAmGM-14" target="t7JAlR705H4Pw7hRAmGM-18" edge="1">
            <mxGeometry width="240" relative="1" as="geometry">
              <mxPoint x="3980" y="-950" as="sourcePoint" />
              <mxPoint x="3980" y="-870" as="targetPoint" />
            </mxGeometry>
          </mxCell>
        </object>
        <object placeholders="1" c4Type="Relationship" c4Description="Sends a request using axios" label="&lt;div style=&quot;text-align: left&quot;&gt;&lt;div style=&quot;text-align: center&quot;&gt;&lt;b&gt;%c4Description%&lt;/b&gt;&lt;/div&gt;" id="t7JAlR705H4Pw7hRAmGM-29">
          <mxCell style="endArrow=blockThin;html=1;fontSize=10;fontColor=#404040;strokeWidth=1;endFill=1;strokeColor=#828282;elbow=vertical;metaEdit=1;endSize=14;startSize=14;jumpStyle=arc;jumpSize=16;rounded=0;edgeStyle=orthogonalEdgeStyle;entryX=0.5;entryY=0;entryDx=0;entryDy=0;entryPerimeter=0;" parent="1" target="t7JAlR705H4Pw7hRAmGM-59" edge="1">
            <mxGeometry x="-0.5" width="240" relative="1" as="geometry">
              <mxPoint x="4480" y="-680" as="sourcePoint" />
              <mxPoint x="4477" y="-570.0000000000002" as="targetPoint" />
              <Array as="points">
                <mxPoint x="4480" y="-670" />
              </Array>
              <mxPoint y="-1" as="offset" />
            </mxGeometry>
          </mxCell>
        </object>
        <object placeholders="1" c4Type="Relationship" id="t7JAlR705H4Pw7hRAmGM-38">
          <mxCell style="endArrow=blockThin;html=1;fontSize=10;fontColor=#404040;strokeWidth=1;endFill=1;strokeColor=#828282;elbow=vertical;metaEdit=1;endSize=14;startSize=14;jumpStyle=arc;jumpSize=16;rounded=0;edgeStyle=orthogonalEdgeStyle;entryX=0.5;entryY=0;entryDx=0;entryDy=0;entryPerimeter=0;exitX=0.5;exitY=1;exitDx=0;exitDy=0;exitPerimeter=0;" parent="1" source="t7JAlR705H4Pw7hRAmGM-44" target="t7JAlR705H4Pw7hRAmGM-48" edge="1">
            <mxGeometry width="240" relative="1" as="geometry">
              <mxPoint x="4480" y="-1359.9999999999998" as="sourcePoint" />
              <mxPoint x="3950" y="-1100" as="targetPoint" />
              <Array as="points">
                <mxPoint x="4480" y="-1280" />
                <mxPoint x="3950" y="-1280" />
              </Array>
            </mxGeometry>
          </mxCell>
        </object>
        <mxCell id="t7JAlR705H4Pw7hRAmGM-39" value="Makes a call to&lt;br&gt;render the required&lt;br&gt;web page" style="edgeLabel;html=1;align=center;verticalAlign=middle;resizable=0;points=[];" parent="t7JAlR705H4Pw7hRAmGM-38" vertex="1" connectable="0">
          <mxGeometry x="0.8441" y="-3" relative="1" as="geometry">
            <mxPoint as="offset" />
          </mxGeometry>
        </mxCell>
        <mxCell id="t7JAlR705H4Pw7hRAmGM-42" value="&lt;font style=&quot;font-size: 48px;&quot;&gt;Frontend&lt;/font&gt;" style="text;html=1;strokeColor=none;fillColor=none;align=center;verticalAlign=middle;whiteSpace=wrap;rounded=0;" parent="1" vertex="1">
          <mxGeometry x="3600" y="-1507.5" width="210" height="55" as="geometry" />
        </mxCell>
        <object placeholders="1" c4Name="Single-page application" c4Type="Container: JavaScript and React" c4Description="Provides the ordering functionality, concert&#xa; and ticket management to the users &#xa;in their web browsers" label="&lt;font style=&quot;font-size: 16px&quot;&gt;&lt;b&gt;%c4Name%&lt;/b&gt;&lt;/font&gt;&lt;div&gt;[%c4Type%]&lt;/div&gt;&lt;br&gt;&lt;div&gt;&lt;font style=&quot;font-size: 11px&quot;&gt;&lt;font color=&quot;#cccccc&quot;&gt;%c4Description%&lt;/font&gt;&lt;/div&gt;" id="t7JAlR705H4Pw7hRAmGM-44">
          <mxCell style="rounded=1;whiteSpace=wrap;html=1;labelBackgroundColor=none;fillColor=#1061B0;fontColor=#ffffff;align=center;arcSize=10;strokeColor=#0D5091;metaEdit=1;resizable=0;points=[[0.25,0,0],[0.5,0,0],[0.75,0,0],[1,0.25,0],[1,0.5,0],[1,0.75,0],[0.75,1,0],[0.5,1,0],[0.25,1,0],[0,0.75,0],[0,0.5,0],[0,0.25,0]];" parent="1" vertex="1">
            <mxGeometry x="4360" y="-1490" width="240" height="120" as="geometry" />
          </mxCell>
        </object>
        <object placeholders="1" c4Name="Profile Page" c4Type="Components" c4Technology="HTML, JavaScript and CSS" c4Description="Allows users to view information&#xa;related to their profile. They are&#xa;also able to change their account &#xa;details and delete their profiles" label="&lt;font style=&quot;font-size: 16px&quot;&gt;&lt;b&gt;%c4Name%&lt;/b&gt;&lt;/font&gt;&lt;div&gt;[%c4Type%: %c4Technology%]&lt;/div&gt;&lt;br&gt;&lt;div&gt;&lt;font style=&quot;font-size: 11px&quot;&gt;%c4Description%&lt;/font&gt;&lt;/div&gt;" id="t7JAlR705H4Pw7hRAmGM-45">
          <mxCell style="rounded=1;whiteSpace=wrap;html=1;labelBackgroundColor=none;fillColor=#63BEF2;fontColor=#ffffff;align=center;arcSize=6;strokeColor=#2086C9;metaEdit=1;resizable=0;points=[[0.25,0,0],[0.5,0,0],[0.75,0,0],[1,0.25,0],[1,0.5,0],[1,0.75,0],[0.75,1,0],[0.5,1,0],[0.25,1,0],[0,0.75,0],[0,0.5,0],[0,0.25,0]];" parent="1" vertex="1">
            <mxGeometry x="4180" y="-1096" width="240" height="120" as="geometry" />
          </mxCell>
        </object>
        <object placeholders="1" c4Name="User Services" c4Type="Component" c4Technology="JavaScript" c4Description="Serves as a connection between the frontend and the backend of the application." label="&lt;font style=&quot;font-size: 16px&quot;&gt;&lt;b&gt;%c4Name%&lt;/b&gt;&lt;/font&gt;&lt;div&gt;[%c4Type%: %c4Technology%]&lt;/div&gt;&lt;br&gt;&lt;div&gt;&lt;font style=&quot;font-size: 11px&quot;&gt;%c4Description%&lt;/font&gt;&lt;/div&gt;" id="t7JAlR705H4Pw7hRAmGM-46">
          <mxCell style="rounded=1;whiteSpace=wrap;html=1;labelBackgroundColor=none;fillColor=#63BEF2;fontColor=#ffffff;align=center;arcSize=6;strokeColor=#2086C9;metaEdit=1;resizable=0;points=[[0.25,0,0],[0.5,0,0],[0.75,0,0],[1,0.25,0],[1,0.5,0],[1,0.75,0],[0.75,1,0],[0.5,1,0],[0.25,1,0],[0,0.75,0],[0,0.5,0],[0,0.25,0]];" parent="1" vertex="1">
            <mxGeometry x="4180" y="-876" width="240" height="120" as="geometry" />
          </mxCell>
        </object>
        <object placeholders="1" c4Name="Concerts Page" c4Type="Components" c4Technology="HTML, JavaScript and CSS" c4Description="Provides the user with a wide&#xa;variety of concerts from artists&#xa;of all different genres" label="&lt;font style=&quot;font-size: 16px&quot;&gt;&lt;b&gt;%c4Name%&lt;/b&gt;&lt;/font&gt;&lt;div&gt;[%c4Type%: %c4Technology%]&lt;/div&gt;&lt;br&gt;&lt;div&gt;&lt;font style=&quot;font-size: 11px&quot;&gt;%c4Description%&lt;/font&gt;&lt;/div&gt;" id="t7JAlR705H4Pw7hRAmGM-48">
          <mxCell style="rounded=1;whiteSpace=wrap;html=1;labelBackgroundColor=none;fillColor=#63BEF2;fontColor=#ffffff;align=center;arcSize=6;strokeColor=#2086C9;metaEdit=1;resizable=0;points=[[0.25,0,0],[0.5,0,0],[0.75,0,0],[1,0.25,0],[1,0.5,0],[1,0.75,0],[0.75,1,0],[0.5,1,0],[0.25,1,0],[0,0.75,0],[0,0.5,0],[0,0.25,0]];" parent="1" vertex="1">
            <mxGeometry x="3830" y="-1100" width="240" height="120" as="geometry" />
          </mxCell>
        </object>
        <object placeholders="1" c4Name="Concert Services" c4Type="Component" c4Technology="JavaScript" c4Description="Serves as a connection between the frontend and the backend of the application." label="&lt;font style=&quot;font-size: 16px&quot;&gt;&lt;b&gt;%c4Name%&lt;/b&gt;&lt;/font&gt;&lt;div&gt;[%c4Type%: %c4Technology%]&lt;/div&gt;&lt;br&gt;&lt;div&gt;&lt;font style=&quot;font-size: 11px&quot;&gt;%c4Description%&lt;/font&gt;&lt;/div&gt;" id="t7JAlR705H4Pw7hRAmGM-49">
          <mxCell style="rounded=1;whiteSpace=wrap;html=1;labelBackgroundColor=none;fillColor=#63BEF2;fontColor=#ffffff;align=center;arcSize=6;strokeColor=#2086C9;metaEdit=1;resizable=0;points=[[0.25,0,0],[0.5,0,0],[0.75,0,0],[1,0.25,0],[1,0.5,0],[1,0.75,0],[0.75,1,0],[0.5,1,0],[0.25,1,0],[0,0.75,0],[0,0.5,0],[0,0.25,0]];" parent="1" vertex="1">
            <mxGeometry x="3830" y="-876" width="240" height="120" as="geometry" />
          </mxCell>
        </object>
        <object placeholders="1" c4Type="Relationship" c4Description="Sends a request to" label="&lt;div style=&quot;text-align: left&quot;&gt;&lt;div style=&quot;text-align: center&quot;&gt;&lt;b&gt;%c4Description%&lt;/b&gt;&lt;/div&gt;" id="t7JAlR705H4Pw7hRAmGM-54">
          <mxCell style="endArrow=blockThin;html=1;fontSize=10;fontColor=#404040;strokeWidth=1;endFill=1;strokeColor=#828282;elbow=vertical;metaEdit=1;endSize=14;startSize=14;jumpStyle=arc;jumpSize=16;rounded=0;edgeStyle=orthogonalEdgeStyle;exitX=0.5;exitY=1;exitDx=0;exitDy=0;exitPerimeter=0;entryX=0.5;entryY=0;entryDx=0;entryDy=0;entryPerimeter=0;" parent="1" edge="1">
            <mxGeometry x="-0.0385" width="240" relative="1" as="geometry">
              <mxPoint x="3949.62" y="-980" as="sourcePoint" />
              <mxPoint x="3949.62" y="-876" as="targetPoint" />
              <mxPoint as="offset" />
            </mxGeometry>
          </mxCell>
        </object>
        <object placeholders="1" c4Type="Relationship" c4Description="Sends a request to" label="&lt;div style=&quot;text-align: left&quot;&gt;&lt;div style=&quot;text-align: center&quot;&gt;&lt;b&gt;%c4Description%&lt;/b&gt;&lt;/div&gt;" id="t7JAlR705H4Pw7hRAmGM-55">
          <mxCell style="endArrow=blockThin;html=1;fontSize=10;fontColor=#404040;strokeWidth=1;endFill=1;strokeColor=#828282;elbow=vertical;metaEdit=1;endSize=14;startSize=14;jumpStyle=arc;jumpSize=16;rounded=0;edgeStyle=orthogonalEdgeStyle;entryX=0.5;entryY=0;entryDx=0;entryDy=0;entryPerimeter=0;exitX=0.5;exitY=1;exitDx=0;exitDy=0;exitPerimeter=0;" parent="1" source="t7JAlR705H4Pw7hRAmGM-45" edge="1">
            <mxGeometry x="-0.0385" width="240" relative="1" as="geometry">
              <mxPoint x="4300" y="-970" as="sourcePoint" />
              <mxPoint x="4299.62" y="-876" as="targetPoint" />
              <mxPoint as="offset" />
            </mxGeometry>
          </mxCell>
        </object>
        <object placeholders="1" c4Name="Backend application" c4Type="[Container: Java Spring Boot + REST]" c4Description="Provides all the platform business&#xa;functionality to manipulate the database." label="&lt;font style=&quot;font-size: 16px&quot;&gt;&lt;b&gt;%c4Name%&lt;/b&gt;&lt;/font&gt;&lt;div&gt;[%c4Type%]&lt;/div&gt;&lt;br&gt;&lt;div&gt;&lt;font style=&quot;font-size: 11px&quot;&gt;&lt;font color=&quot;#cccccc&quot;&gt;%c4Description%&lt;/font&gt;&lt;/div&gt;" id="t7JAlR705H4Pw7hRAmGM-59">
          <mxCell style="rounded=1;whiteSpace=wrap;html=1;labelBackgroundColor=none;fillColor=#1061B0;fontColor=#ffffff;align=center;arcSize=10;strokeColor=#0D5091;metaEdit=1;resizable=0;points=[[0.25,0,0],[0.5,0,0],[0.75,0,0],[1,0.25,0],[1,0.5,0],[1,0.75,0],[0.75,1,0],[0.5,1,0],[0.25,1,0],[0,0.75,0],[0,0.5,0],[0,0.25,0]];" parent="1" vertex="1">
            <mxGeometry x="4360" y="-560" width="240" height="120" as="geometry" />
          </mxCell>
        </object>
        <object placeholders="1" c4Type="Relationship" id="t7JAlR705H4Pw7hRAmGM-60">
          <mxCell style="endArrow=blockThin;html=1;fontSize=10;fontColor=#404040;strokeWidth=1;endFill=1;strokeColor=#828282;elbow=vertical;metaEdit=1;endSize=14;startSize=14;jumpStyle=arc;jumpSize=16;rounded=0;edgeStyle=orthogonalEdgeStyle;exitX=0.5;exitY=1;exitDx=0;exitDy=0;exitPerimeter=0;entryX=0.5;entryY=0;entryDx=0;entryDy=0;entryPerimeter=0;" parent="1" source="t7JAlR705H4Pw7hRAmGM-49" target="t7JAlR705H4Pw7hRAmGM-59" edge="1">
            <mxGeometry width="240" relative="1" as="geometry">
              <mxPoint x="4310" y="-760" as="sourcePoint" />
              <mxPoint x="4550" y="-760" as="targetPoint" />
              <Array as="points">
                <mxPoint x="3950" y="-700" />
                <mxPoint x="4480" y="-700" />
              </Array>
            </mxGeometry>
          </mxCell>
        </object>
        <object placeholders="1" c4Type="Relationship" id="t7JAlR705H4Pw7hRAmGM-61">
          <mxCell style="endArrow=blockThin;html=1;fontSize=10;fontColor=#404040;strokeWidth=1;endFill=1;strokeColor=#828282;elbow=vertical;metaEdit=1;endSize=14;startSize=14;jumpStyle=arc;jumpSize=16;rounded=0;edgeStyle=orthogonalEdgeStyle;exitX=0.5;exitY=1;exitDx=0;exitDy=0;exitPerimeter=0;entryX=0.5;entryY=0;entryDx=0;entryDy=0;entryPerimeter=0;" parent="1" source="t7JAlR705H4Pw7hRAmGM-46" target="t7JAlR705H4Pw7hRAmGM-59" edge="1">
            <mxGeometry width="240" relative="1" as="geometry">
              <mxPoint x="4370" y="-670" as="sourcePoint" />
              <mxPoint x="4610" y="-670" as="targetPoint" />
              <Array as="points">
                <mxPoint x="4300" y="-700" />
                <mxPoint x="4480" y="-700" />
              </Array>
            </mxGeometry>
          </mxCell>
        </object>
        <object placeholders="1" c4Type="Relationship" id="t7JAlR705H4Pw7hRAmGM-63">
          <mxCell style="endArrow=blockThin;html=1;fontSize=10;fontColor=#404040;strokeWidth=1;endFill=1;strokeColor=#828282;elbow=vertical;metaEdit=1;endSize=14;startSize=14;jumpStyle=arc;jumpSize=16;rounded=0;edgeStyle=orthogonalEdgeStyle;entryX=0.5;entryY=0;entryDx=0;entryDy=0;entryPerimeter=0;exitX=0.5;exitY=1;exitDx=0;exitDy=0;exitPerimeter=0;" parent="1" source="t7JAlR705H4Pw7hRAmGM-17" target="t7JAlR705H4Pw7hRAmGM-59" edge="1">
            <mxGeometry width="240" relative="1" as="geometry">
              <mxPoint x="4530" y="-780" as="sourcePoint" />
              <mxPoint x="4770" y="-780" as="targetPoint" />
              <Array as="points">
                <mxPoint x="4650" y="-700" />
                <mxPoint x="4480" y="-700" />
              </Array>
            </mxGeometry>
          </mxCell>
        </object>
        <object placeholders="1" c4Type="Relationship" id="t7JAlR705H4Pw7hRAmGM-64">
          <mxCell style="endArrow=blockThin;html=1;fontSize=10;fontColor=#404040;strokeWidth=1;endFill=1;strokeColor=#828282;elbow=vertical;metaEdit=1;endSize=14;startSize=14;jumpStyle=arc;jumpSize=16;rounded=0;edgeStyle=orthogonalEdgeStyle;entryX=0.5;entryY=0;entryDx=0;entryDy=0;entryPerimeter=0;exitX=0.5;exitY=1;exitDx=0;exitDy=0;exitPerimeter=0;" parent="1" source="t7JAlR705H4Pw7hRAmGM-18" target="t7JAlR705H4Pw7hRAmGM-59" edge="1">
            <mxGeometry width="240" relative="1" as="geometry">
              <mxPoint x="4530" y="-780" as="sourcePoint" />
              <mxPoint x="4770" y="-780" as="targetPoint" />
              <Array as="points">
                <mxPoint x="5000" y="-700" />
                <mxPoint x="4480" y="-700" />
              </Array>
            </mxGeometry>
          </mxCell>
        </object>
        <mxCell id="5XcLsP9dz8gBtlcLzKSU-1" value="&lt;font style=&quot;font-size: 36px;&quot;&gt;C4&lt;br&gt;&lt;/font&gt;" style="ellipse;whiteSpace=wrap;html=1;aspect=fixed;" parent="1" vertex="1">
          <mxGeometry x="5918" y="-132.5" width="80" height="80" as="geometry" />
        </mxCell>
        <mxCell id="5XcLsP9dz8gBtlcLzKSU-2" value="&lt;font style=&quot;font-size: 48px;&quot;&gt;Backend&lt;/font&gt;" style="text;html=1;strokeColor=none;fillColor=none;align=center;verticalAlign=middle;whiteSpace=wrap;rounded=0;" parent="1" vertex="1">
          <mxGeometry x="6028" y="-120" width="210" height="55" as="geometry" />
        </mxCell>
        <mxCell id="5XcLsP9dz8gBtlcLzKSU-7" value="&lt;font style=&quot;font-size: 24px;&quot;&gt;Concert&lt;/font&gt;" style="swimlane;fontStyle=0;childLayout=stackLayout;horizontal=1;startSize=50;horizontalStack=0;resizeParent=1;resizeParentMax=0;resizeLast=0;collapsible=1;marginBottom=0;whiteSpace=wrap;html=1;" parent="1" vertex="1">
          <mxGeometry x="5910" y="10" width="250" height="450" as="geometry" />
        </mxCell>
        <mxCell id="5XcLsP9dz8gBtlcLzKSU-8" value="&lt;font style=&quot;font-size: 18px;&quot;&gt;- id: Long&lt;/font&gt;" style="text;strokeColor=none;fillColor=none;align=left;verticalAlign=middle;spacingLeft=4;spacingRight=4;overflow=hidden;points=[[0,0.5],[1,0.5]];portConstraint=eastwest;rotatable=0;whiteSpace=wrap;html=1;" parent="5XcLsP9dz8gBtlcLzKSU-7" vertex="1">
          <mxGeometry y="50" width="250" height="40" as="geometry" />
        </mxCell>
        <mxCell id="5XcLsP9dz8gBtlcLzKSU-9" value="&lt;font style=&quot;font-size: 18px;&quot;&gt;- artist: String&lt;/font&gt;" style="text;strokeColor=none;fillColor=none;align=left;verticalAlign=middle;spacingLeft=4;spacingRight=4;overflow=hidden;points=[[0,0.5],[1,0.5]];portConstraint=eastwest;rotatable=0;whiteSpace=wrap;html=1;" parent="5XcLsP9dz8gBtlcLzKSU-7" vertex="1">
          <mxGeometry y="90" width="250" height="40" as="geometry" />
        </mxCell>
        <mxCell id="5XcLsP9dz8gBtlcLzKSU-10" value="&lt;font style=&quot;font-size: 18px;&quot;&gt;- musicGenre: String&lt;/font&gt;" style="text;strokeColor=none;fillColor=none;align=left;verticalAlign=middle;spacingLeft=4;spacingRight=4;overflow=hidden;points=[[0,0.5],[1,0.5]];portConstraint=eastwest;rotatable=0;whiteSpace=wrap;html=1;" parent="5XcLsP9dz8gBtlcLzKSU-7" vertex="1">
          <mxGeometry y="130" width="250" height="40" as="geometry" />
        </mxCell>
        <mxCell id="5XcLsP9dz8gBtlcLzKSU-11" value="&lt;font style=&quot;font-size: 18px;&quot;&gt;- venue: String&lt;/font&gt;" style="text;strokeColor=none;fillColor=none;align=left;verticalAlign=middle;spacingLeft=4;spacingRight=4;overflow=hidden;points=[[0,0.5],[1,0.5]];portConstraint=eastwest;rotatable=0;whiteSpace=wrap;html=1;" parent="5XcLsP9dz8gBtlcLzKSU-7" vertex="1">
          <mxGeometry y="170" width="250" height="40" as="geometry" />
        </mxCell>
        <mxCell id="5XcLsP9dz8gBtlcLzKSU-12" value="&lt;span style=&quot;font-size: 18px;&quot;&gt;- date: Date&lt;/span&gt;" style="text;strokeColor=none;fillColor=none;align=left;verticalAlign=middle;spacingLeft=4;spacingRight=4;overflow=hidden;points=[[0,0.5],[1,0.5]];portConstraint=eastwest;rotatable=0;whiteSpace=wrap;html=1;" parent="5XcLsP9dz8gBtlcLzKSU-7" vertex="1">
          <mxGeometry y="210" width="250" height="40" as="geometry" />
        </mxCell>
        <mxCell id="5XcLsP9dz8gBtlcLzKSU-13" value="&lt;font style=&quot;font-size: 18px;&quot;&gt;- city: String&lt;/font&gt;" style="text;strokeColor=none;fillColor=none;align=left;verticalAlign=middle;spacingLeft=4;spacingRight=4;overflow=hidden;points=[[0,0.5],[1,0.5]];portConstraint=eastwest;rotatable=0;whiteSpace=wrap;html=1;" parent="5XcLsP9dz8gBtlcLzKSU-7" vertex="1">
          <mxGeometry y="250" width="250" height="40" as="geometry" />
        </mxCell>
        <mxCell id="5XcLsP9dz8gBtlcLzKSU-14" value="&lt;font style=&quot;font-size: 18px;&quot;&gt;- desc: String&lt;/font&gt;" style="text;strokeColor=none;fillColor=none;align=left;verticalAlign=middle;spacingLeft=4;spacingRight=4;overflow=hidden;points=[[0,0.5],[1,0.5]];portConstraint=eastwest;rotatable=0;whiteSpace=wrap;html=1;" parent="5XcLsP9dz8gBtlcLzKSU-7" vertex="1">
          <mxGeometry y="290" width="250" height="40" as="geometry" />
        </mxCell>
        <mxCell id="5XcLsP9dz8gBtlcLzKSU-15" value="&lt;font style=&quot;font-size: 18px;&quot;&gt;- photoURL: String&lt;/font&gt;" style="text;strokeColor=none;fillColor=none;align=left;verticalAlign=middle;spacingLeft=4;spacingRight=4;overflow=hidden;points=[[0,0.5],[1,0.5]];portConstraint=eastwest;rotatable=0;whiteSpace=wrap;html=1;" parent="5XcLsP9dz8gBtlcLzKSU-7" vertex="1">
          <mxGeometry y="330" width="250" height="40" as="geometry" />
        </mxCell>
        <mxCell id="5XcLsP9dz8gBtlcLzKSU-16" value="&lt;font style=&quot;font-size: 18px;&quot;&gt;- price: Double&lt;/font&gt;" style="text;strokeColor=none;fillColor=none;align=left;verticalAlign=middle;spacingLeft=4;spacingRight=4;overflow=hidden;points=[[0,0.5],[1,0.5]];portConstraint=eastwest;rotatable=0;whiteSpace=wrap;html=1;" parent="5XcLsP9dz8gBtlcLzKSU-7" vertex="1">
          <mxGeometry y="370" width="250" height="40" as="geometry" />
        </mxCell>
        <mxCell id="5XcLsP9dz8gBtlcLzKSU-17" value="&lt;font style=&quot;font-size: 18px;&quot;&gt;- ticketsRemaining: Integer&lt;/font&gt;" style="text;strokeColor=none;fillColor=none;align=left;verticalAlign=middle;spacingLeft=4;spacingRight=4;overflow=hidden;points=[[0,0.5],[1,0.5]];portConstraint=eastwest;rotatable=0;whiteSpace=wrap;html=1;" parent="5XcLsP9dz8gBtlcLzKSU-7" vertex="1">
          <mxGeometry y="410" width="250" height="40" as="geometry" />
        </mxCell>
        <mxCell id="5XcLsP9dz8gBtlcLzKSU-18" value="&lt;font style=&quot;font-size: 24px;&quot;&gt;Order&lt;/font&gt;" style="swimlane;fontStyle=0;childLayout=stackLayout;horizontal=1;startSize=50;horizontalStack=0;resizeParent=1;resizeParentMax=0;resizeLast=0;collapsible=1;marginBottom=0;whiteSpace=wrap;html=1;" parent="1" vertex="1">
          <mxGeometry x="6380" y="10" width="250" height="490" as="geometry" />
        </mxCell>
        <mxCell id="5XcLsP9dz8gBtlcLzKSU-19" value="&lt;font style=&quot;font-size: 18px;&quot;&gt;- id: Long&lt;/font&gt;" style="text;strokeColor=none;fillColor=none;align=left;verticalAlign=middle;spacingLeft=4;spacingRight=4;overflow=hidden;points=[[0,0.5],[1,0.5]];portConstraint=eastwest;rotatable=0;whiteSpace=wrap;html=1;" parent="5XcLsP9dz8gBtlcLzKSU-18" vertex="1">
          <mxGeometry y="50" width="250" height="40" as="geometry" />
        </mxCell>
        <mxCell id="5XcLsP9dz8gBtlcLzKSU-20" value="&lt;font style=&quot;font-size: 18px;&quot;&gt;- concertId: Long&lt;/font&gt;" style="text;strokeColor=none;fillColor=none;align=left;verticalAlign=middle;spacingLeft=4;spacingRight=4;overflow=hidden;points=[[0,0.5],[1,0.5]];portConstraint=eastwest;rotatable=0;whiteSpace=wrap;html=1;" parent="5XcLsP9dz8gBtlcLzKSU-18" vertex="1">
          <mxGeometry y="90" width="250" height="40" as="geometry" />
        </mxCell>
        <mxCell id="5XcLsP9dz8gBtlcLzKSU-21" value="&lt;span style=&quot;font-size: 18px;&quot;&gt;- userId: Long&lt;/span&gt;" style="text;strokeColor=none;fillColor=none;align=left;verticalAlign=middle;spacingLeft=4;spacingRight=4;overflow=hidden;points=[[0,0.5],[1,0.5]];portConstraint=eastwest;rotatable=0;whiteSpace=wrap;html=1;" parent="5XcLsP9dz8gBtlcLzKSU-18" vertex="1">
          <mxGeometry y="130" width="250" height="40" as="geometry" />
        </mxCell>
        <mxCell id="5XcLsP9dz8gBtlcLzKSU-22" value="&lt;span style=&quot;font-size: 18px;&quot;&gt;- date: Date&lt;/span&gt;" style="text;strokeColor=none;fillColor=none;align=left;verticalAlign=middle;spacingLeft=4;spacingRight=4;overflow=hidden;points=[[0,0.5],[1,0.5]];portConstraint=eastwest;rotatable=0;whiteSpace=wrap;html=1;" parent="5XcLsP9dz8gBtlcLzKSU-18" vertex="1">
          <mxGeometry y="170" width="250" height="40" as="geometry" />
        </mxCell>
        <mxCell id="5XcLsP9dz8gBtlcLzKSU-23" value="&lt;span style=&quot;font-size: 18px;&quot;&gt;- name: String&lt;/span&gt;" style="text;strokeColor=none;fillColor=none;align=left;verticalAlign=middle;spacingLeft=4;spacingRight=4;overflow=hidden;points=[[0,0.5],[1,0.5]];portConstraint=eastwest;rotatable=0;whiteSpace=wrap;html=1;" parent="5XcLsP9dz8gBtlcLzKSU-18" vertex="1">
          <mxGeometry y="210" width="250" height="40" as="geometry" />
        </mxCell>
        <mxCell id="5XcLsP9dz8gBtlcLzKSU-24" value="&lt;span style=&quot;font-size: 18px;&quot;&gt;- surname: String&lt;/span&gt;" style="text;strokeColor=none;fillColor=none;align=left;verticalAlign=middle;spacingLeft=4;spacingRight=4;overflow=hidden;points=[[0,0.5],[1,0.5]];portConstraint=eastwest;rotatable=0;whiteSpace=wrap;html=1;" parent="5XcLsP9dz8gBtlcLzKSU-18" vertex="1">
          <mxGeometry y="250" width="250" height="40" as="geometry" />
        </mxCell>
        <mxCell id="5XcLsP9dz8gBtlcLzKSU-25" value="&lt;font style=&quot;font-size: 18px;&quot;&gt;- address: String&lt;/font&gt;" style="text;strokeColor=none;fillColor=none;align=left;verticalAlign=middle;spacingLeft=4;spacingRight=4;overflow=hidden;points=[[0,0.5],[1,0.5]];portConstraint=eastwest;rotatable=0;whiteSpace=wrap;html=1;" parent="5XcLsP9dz8gBtlcLzKSU-18" vertex="1">
          <mxGeometry y="290" width="250" height="40" as="geometry" />
        </mxCell>
        <mxCell id="5XcLsP9dz8gBtlcLzKSU-26" value="&lt;span style=&quot;font-size: 18px;&quot;&gt;- phone: String&lt;/span&gt;" style="text;strokeColor=none;fillColor=none;align=left;verticalAlign=middle;spacingLeft=4;spacingRight=4;overflow=hidden;points=[[0,0.5],[1,0.5]];portConstraint=eastwest;rotatable=0;whiteSpace=wrap;html=1;" parent="5XcLsP9dz8gBtlcLzKSU-18" vertex="1">
          <mxGeometry y="330" width="250" height="40" as="geometry" />
        </mxCell>
        <mxCell id="5XcLsP9dz8gBtlcLzKSU-27" value="&lt;span style=&quot;font-size: 18px;&quot;&gt;- ticketNumber: Integer&lt;/span&gt;" style="text;strokeColor=none;fillColor=none;align=left;verticalAlign=middle;spacingLeft=4;spacingRight=4;overflow=hidden;points=[[0,0.5],[1,0.5]];portConstraint=eastwest;rotatable=0;whiteSpace=wrap;html=1;" parent="5XcLsP9dz8gBtlcLzKSU-18" vertex="1">
          <mxGeometry y="370" width="250" height="40" as="geometry" />
        </mxCell>
        <mxCell id="5XcLsP9dz8gBtlcLzKSU-28" value="&lt;font style=&quot;font-size: 18px;&quot;&gt;- orderPrice: Double&lt;/font&gt;" style="text;strokeColor=none;fillColor=none;align=left;verticalAlign=middle;spacingLeft=4;spacingRight=4;overflow=hidden;points=[[0,0.5],[1,0.5]];portConstraint=eastwest;rotatable=0;whiteSpace=wrap;html=1;" parent="5XcLsP9dz8gBtlcLzKSU-18" vertex="1">
          <mxGeometry y="410" width="250" height="40" as="geometry" />
        </mxCell>
        <mxCell id="5XcLsP9dz8gBtlcLzKSU-29" value="&lt;span style=&quot;font-size: 18px;&quot;&gt;- paymentMethod: String&lt;/span&gt;" style="text;strokeColor=none;fillColor=none;align=left;verticalAlign=middle;spacingLeft=4;spacingRight=4;overflow=hidden;points=[[0,0.5],[1,0.5]];portConstraint=eastwest;rotatable=0;whiteSpace=wrap;html=1;" parent="5XcLsP9dz8gBtlcLzKSU-18" vertex="1">
          <mxGeometry y="450" width="250" height="40" as="geometry" />
        </mxCell>
        <mxCell id="5XcLsP9dz8gBtlcLzKSU-30" value="&lt;font style=&quot;font-size: 24px;&quot;&gt;Ticket&lt;/font&gt;" style="swimlane;fontStyle=0;childLayout=stackLayout;horizontal=1;startSize=50;horizontalStack=0;resizeParent=1;resizeParentMax=0;resizeLast=0;collapsible=1;marginBottom=0;whiteSpace=wrap;html=1;" parent="1" vertex="1">
          <mxGeometry x="6840" y="10" width="250" height="530" as="geometry" />
        </mxCell>
        <mxCell id="5XcLsP9dz8gBtlcLzKSU-31" value="&lt;font style=&quot;font-size: 18px;&quot;&gt;- id: Long&lt;/font&gt;" style="text;strokeColor=none;fillColor=none;align=left;verticalAlign=middle;spacingLeft=4;spacingRight=4;overflow=hidden;points=[[0,0.5],[1,0.5]];portConstraint=eastwest;rotatable=0;whiteSpace=wrap;html=1;" parent="5XcLsP9dz8gBtlcLzKSU-30" vertex="1">
          <mxGeometry y="50" width="250" height="40" as="geometry" />
        </mxCell>
        <mxCell id="5XcLsP9dz8gBtlcLzKSU-32" value="&lt;font style=&quot;font-size: 18px;&quot;&gt;- orderId: Long&lt;/font&gt;" style="text;strokeColor=none;fillColor=none;align=left;verticalAlign=middle;spacingLeft=4;spacingRight=4;overflow=hidden;points=[[0,0.5],[1,0.5]];portConstraint=eastwest;rotatable=0;whiteSpace=wrap;html=1;" parent="5XcLsP9dz8gBtlcLzKSU-30" vertex="1">
          <mxGeometry y="90" width="250" height="40" as="geometry" />
        </mxCell>
        <mxCell id="5XcLsP9dz8gBtlcLzKSU-33" value="&lt;span style=&quot;font-size: 18px;&quot;&gt;- concertId: Long&lt;/span&gt;" style="text;strokeColor=none;fillColor=none;align=left;verticalAlign=middle;spacingLeft=4;spacingRight=4;overflow=hidden;points=[[0,0.5],[1,0.5]];portConstraint=eastwest;rotatable=0;whiteSpace=wrap;html=1;" parent="5XcLsP9dz8gBtlcLzKSU-30" vertex="1">
          <mxGeometry y="130" width="250" height="40" as="geometry" />
        </mxCell>
        <mxCell id="5XcLsP9dz8gBtlcLzKSU-34" value="&lt;span style=&quot;font-size: 18px;&quot;&gt;- QR: String&lt;/span&gt;" style="text;strokeColor=none;fillColor=none;align=left;verticalAlign=middle;spacingLeft=4;spacingRight=4;overflow=hidden;points=[[0,0.5],[1,0.5]];portConstraint=eastwest;rotatable=0;whiteSpace=wrap;html=1;" parent="5XcLsP9dz8gBtlcLzKSU-30" vertex="1">
          <mxGeometry y="170" width="250" height="40" as="geometry" />
        </mxCell>
        <mxCell id="5XcLsP9dz8gBtlcLzKSU-35" value="&lt;span style=&quot;font-size: 18px;&quot;&gt;- userName: String&lt;/span&gt;" style="text;strokeColor=none;fillColor=none;align=left;verticalAlign=middle;spacingLeft=4;spacingRight=4;overflow=hidden;points=[[0,0.5],[1,0.5]];portConstraint=eastwest;rotatable=0;whiteSpace=wrap;html=1;" parent="5XcLsP9dz8gBtlcLzKSU-30" vertex="1">
          <mxGeometry y="210" width="250" height="40" as="geometry" />
        </mxCell>
        <mxCell id="5XcLsP9dz8gBtlcLzKSU-36" value="&lt;span style=&quot;font-size: 18px;&quot;&gt;- concertArtist: String&lt;/span&gt;" style="text;strokeColor=none;fillColor=none;align=left;verticalAlign=middle;spacingLeft=4;spacingRight=4;overflow=hidden;points=[[0,0.5],[1,0.5]];portConstraint=eastwest;rotatable=0;whiteSpace=wrap;html=1;" parent="5XcLsP9dz8gBtlcLzKSU-30" vertex="1">
          <mxGeometry y="250" width="250" height="40" as="geometry" />
        </mxCell>
        <mxCell id="5XcLsP9dz8gBtlcLzKSU-37" value="&lt;font style=&quot;font-size: 18px;&quot;&gt;- concertVenue: String&lt;/font&gt;" style="text;strokeColor=none;fillColor=none;align=left;verticalAlign=middle;spacingLeft=4;spacingRight=4;overflow=hidden;points=[[0,0.5],[1,0.5]];portConstraint=eastwest;rotatable=0;whiteSpace=wrap;html=1;" parent="5XcLsP9dz8gBtlcLzKSU-30" vertex="1">
          <mxGeometry y="290" width="250" height="40" as="geometry" />
        </mxCell>
        <mxCell id="5XcLsP9dz8gBtlcLzKSU-38" value="&lt;span style=&quot;font-size: 18px;&quot;&gt;- concertDate: Date&lt;/span&gt;" style="text;strokeColor=none;fillColor=none;align=left;verticalAlign=middle;spacingLeft=4;spacingRight=4;overflow=hidden;points=[[0,0.5],[1,0.5]];portConstraint=eastwest;rotatable=0;whiteSpace=wrap;html=1;" parent="5XcLsP9dz8gBtlcLzKSU-30" vertex="1">
          <mxGeometry y="330" width="250" height="40" as="geometry" />
        </mxCell>
        <mxCell id="5XcLsP9dz8gBtlcLzKSU-39" value="&lt;span style=&quot;font-size: 18px;&quot;&gt;- concertCity: String&lt;/span&gt;" style="text;strokeColor=none;fillColor=none;align=left;verticalAlign=middle;spacingLeft=4;spacingRight=4;overflow=hidden;points=[[0,0.5],[1,0.5]];portConstraint=eastwest;rotatable=0;whiteSpace=wrap;html=1;" parent="5XcLsP9dz8gBtlcLzKSU-30" vertex="1">
          <mxGeometry y="370" width="250" height="40" as="geometry" />
        </mxCell>
        <mxCell id="5XcLsP9dz8gBtlcLzKSU-40" value="&lt;font style=&quot;font-size: 18px;&quot;&gt;- section: String&lt;/font&gt;" style="text;strokeColor=none;fillColor=none;align=left;verticalAlign=middle;spacingLeft=4;spacingRight=4;overflow=hidden;points=[[0,0.5],[1,0.5]];portConstraint=eastwest;rotatable=0;whiteSpace=wrap;html=1;" parent="5XcLsP9dz8gBtlcLzKSU-30" vertex="1">
          <mxGeometry y="410" width="250" height="40" as="geometry" />
        </mxCell>
        <mxCell id="5XcLsP9dz8gBtlcLzKSU-41" value="&lt;span style=&quot;font-size: 18px;&quot;&gt;- row: Optional&amp;lt;Integer&amp;gt;&lt;/span&gt;" style="text;strokeColor=none;fillColor=none;align=left;verticalAlign=middle;spacingLeft=4;spacingRight=4;overflow=hidden;points=[[0,0.5],[1,0.5]];portConstraint=eastwest;rotatable=0;whiteSpace=wrap;html=1;" parent="5XcLsP9dz8gBtlcLzKSU-30" vertex="1">
          <mxGeometry y="450" width="250" height="40" as="geometry" />
        </mxCell>
        <mxCell id="5XcLsP9dz8gBtlcLzKSU-42" value="&lt;span style=&quot;font-size: 18px;&quot;&gt;- seat: Optional&amp;lt;Integer&amp;gt;&lt;/span&gt;" style="text;strokeColor=none;fillColor=none;align=left;verticalAlign=middle;spacingLeft=4;spacingRight=4;overflow=hidden;points=[[0,0.5],[1,0.5]];portConstraint=eastwest;rotatable=0;whiteSpace=wrap;html=1;" parent="5XcLsP9dz8gBtlcLzKSU-30" vertex="1">
          <mxGeometry y="490" width="250" height="40" as="geometry" />
        </mxCell>
        <mxCell id="5XcLsP9dz8gBtlcLzKSU-43" value="&lt;font style=&quot;font-size: 24px;&quot;&gt;User&lt;/font&gt;" style="swimlane;fontStyle=0;childLayout=stackLayout;horizontal=1;startSize=50;horizontalStack=0;resizeParent=1;resizeParentMax=0;resizeLast=0;collapsible=1;marginBottom=0;whiteSpace=wrap;html=1;" parent="1" vertex="1">
          <mxGeometry x="6380" y="620" width="250" height="320" as="geometry" />
        </mxCell>
        <mxCell id="5XcLsP9dz8gBtlcLzKSU-44" value="&lt;font style=&quot;font-size: 18px;&quot;&gt;- id: Long&lt;/font&gt;" style="text;strokeColor=none;fillColor=none;align=left;verticalAlign=middle;spacingLeft=4;spacingRight=4;overflow=hidden;points=[[0,0.5],[1,0.5]];portConstraint=eastwest;rotatable=0;whiteSpace=wrap;html=1;" parent="5XcLsP9dz8gBtlcLzKSU-43" vertex="1">
          <mxGeometry y="50" width="250" height="40" as="geometry" />
        </mxCell>
        <mxCell id="5XcLsP9dz8gBtlcLzKSU-45" value="&lt;span style=&quot;font-size: 18px;&quot;&gt;- email: String&lt;/span&gt;" style="text;strokeColor=none;fillColor=none;align=left;verticalAlign=middle;spacingLeft=4;spacingRight=4;overflow=hidden;points=[[0,0.5],[1,0.5]];portConstraint=eastwest;rotatable=0;whiteSpace=wrap;html=1;" parent="5XcLsP9dz8gBtlcLzKSU-43" vertex="1">
          <mxGeometry y="90" width="250" height="40" as="geometry" />
        </mxCell>
        <mxCell id="5XcLsP9dz8gBtlcLzKSU-46" value="&lt;span style=&quot;font-size: 18px;&quot;&gt;- salt: String&lt;/span&gt;" style="text;strokeColor=none;fillColor=none;align=left;verticalAlign=middle;spacingLeft=4;spacingRight=4;overflow=hidden;points=[[0,0.5],[1,0.5]];portConstraint=eastwest;rotatable=0;whiteSpace=wrap;html=1;" parent="5XcLsP9dz8gBtlcLzKSU-43" vertex="1">
          <mxGeometry y="130" width="250" height="40" as="geometry" />
        </mxCell>
        <mxCell id="5XcLsP9dz8gBtlcLzKSU-47" value="&lt;span style=&quot;font-size: 18px;&quot;&gt;- hashedPassword: String&lt;/span&gt;" style="text;strokeColor=none;fillColor=none;align=left;verticalAlign=middle;spacingLeft=4;spacingRight=4;overflow=hidden;points=[[0,0.5],[1,0.5]];portConstraint=eastwest;rotatable=0;whiteSpace=wrap;html=1;" parent="5XcLsP9dz8gBtlcLzKSU-43" vertex="1">
          <mxGeometry y="170" width="250" height="40" as="geometry" />
        </mxCell>
        <mxCell id="5XcLsP9dz8gBtlcLzKSU-48" value="&lt;span style=&quot;font-size: 18px;&quot;&gt;- orderList: List&amp;lt;Long&amp;gt;&lt;/span&gt;" style="text;strokeColor=none;fillColor=none;align=left;verticalAlign=middle;spacingLeft=4;spacingRight=4;overflow=hidden;points=[[0,0.5],[1,0.5]];portConstraint=eastwest;rotatable=0;whiteSpace=wrap;html=1;" parent="5XcLsP9dz8gBtlcLzKSU-43" vertex="1">
          <mxGeometry y="210" width="250" height="40" as="geometry" />
        </mxCell>
        <mxCell id="5XcLsP9dz8gBtlcLzKSU-49" value="&lt;span style=&quot;font-size: 18px;&quot;&gt;- orderListExpired: List&amp;lt;Long&amp;gt;&lt;/span&gt;" style="text;strokeColor=none;fillColor=none;align=left;verticalAlign=middle;spacingLeft=4;spacingRight=4;overflow=hidden;points=[[0,0.5],[1,0.5]];portConstraint=eastwest;rotatable=0;whiteSpace=wrap;html=1;" parent="5XcLsP9dz8gBtlcLzKSU-43" vertex="1">
          <mxGeometry y="250" width="250" height="70" as="geometry" />
        </mxCell>
        <mxCell id="5XcLsP9dz8gBtlcLzKSU-55" style="edgeStyle=orthogonalEdgeStyle;rounded=0;orthogonalLoop=1;jettySize=auto;html=1;exitX=0.5;exitY=0;exitDx=0;exitDy=0;entryX=0.48;entryY=1;entryDx=0;entryDy=0;entryPerimeter=0;" parent="1" edge="1">
          <mxGeometry relative="1" as="geometry">
            <mxPoint x="6513" y="619.9999999999995" as="sourcePoint" />
            <mxPoint x="6508" y="499.99999999999955" as="targetPoint" />
            <Array as="points">
              <mxPoint x="6508" y="620" />
            </Array>
          </mxGeometry>
        </mxCell>
        <mxCell id="5XcLsP9dz8gBtlcLzKSU-56" style="edgeStyle=orthogonalEdgeStyle;rounded=0;orthogonalLoop=1;jettySize=auto;html=1;exitX=1;exitY=0.5;exitDx=0;exitDy=0;entryX=0;entryY=0.5;entryDx=0;entryDy=0;" parent="1" source="5XcLsP9dz8gBtlcLzKSU-12" target="5XcLsP9dz8gBtlcLzKSU-23" edge="1">
          <mxGeometry relative="1" as="geometry" />
        </mxCell>
        <mxCell id="5XcLsP9dz8gBtlcLzKSU-57" style="edgeStyle=orthogonalEdgeStyle;rounded=0;orthogonalLoop=1;jettySize=auto;html=1;exitX=1;exitY=0.5;exitDx=0;exitDy=0;entryX=0;entryY=0.5;entryDx=0;entryDy=0;" parent="1" source="5XcLsP9dz8gBtlcLzKSU-23" target="5XcLsP9dz8gBtlcLzKSU-35" edge="1">
          <mxGeometry relative="1" as="geometry" />
        </mxCell>
        <mxCell id="5OBYi5dotkxld0x0so39-1" value="&lt;font style=&quot;font-size: 24px;&quot;&gt;&amp;lt;&amp;lt;interface&amp;gt;&amp;gt;&lt;br&gt;ConcertsService&lt;br&gt;&lt;/font&gt;" style="swimlane;fontStyle=0;align=center;verticalAlign=top;childLayout=stackLayout;horizontal=1;startSize=70;horizontalStack=0;resizeParent=1;resizeParentMax=0;resizeLast=0;collapsible=0;marginBottom=0;html=1;whiteSpace=wrap;" vertex="1" parent="1">
          <mxGeometry x="6650" y="2110" width="250" height="400" as="geometry" />
        </mxCell>
        <mxCell id="5OBYi5dotkxld0x0so39-2" value="&lt;font style=&quot;font-size: 18px;&quot;&gt;addConcert(request: AddConcertRequest): AddConcertResponse&lt;/font&gt;" style="text;html=1;strokeColor=none;fillColor=none;align=left;verticalAlign=middle;spacingLeft=4;spacingRight=4;overflow=hidden;rotatable=0;points=[[0,0.5],[1,0.5]];portConstraint=eastwest;whiteSpace=wrap;" vertex="1" parent="5OBYi5dotkxld0x0so39-1">
          <mxGeometry y="70" width="250" height="100" as="geometry" />
        </mxCell>
        <mxCell id="5OBYi5dotkxld0x0so39-3" value="&lt;span style=&quot;font-size: 18px;&quot;&gt;getConcert(id: Long): Concert&lt;/span&gt;" style="text;html=1;strokeColor=none;fillColor=none;align=left;verticalAlign=middle;spacingLeft=4;spacingRight=4;overflow=hidden;rotatable=0;points=[[0,0.5],[1,0.5]];portConstraint=eastwest;whiteSpace=wrap;" vertex="1" parent="5OBYi5dotkxld0x0so39-1">
          <mxGeometry y="170" width="250" height="70" as="geometry" />
        </mxCell>
        <mxCell id="5OBYi5dotkxld0x0so39-4" value="&lt;span style=&quot;font-size: 18px;&quot;&gt;getAllConcerts(): List&amp;lt;Concert&amp;gt;&lt;/span&gt;" style="text;html=1;strokeColor=none;fillColor=none;align=left;verticalAlign=middle;spacingLeft=4;spacingRight=4;overflow=hidden;rotatable=0;points=[[0,0.5],[1,0.5]];portConstraint=eastwest;whiteSpace=wrap;" vertex="1" parent="5OBYi5dotkxld0x0so39-1">
          <mxGeometry y="240" width="250" height="80" as="geometry" />
        </mxCell>
        <mxCell id="5OBYi5dotkxld0x0so39-5" value="&lt;span style=&quot;font-size: 18px;&quot;&gt;updateConcert(request:&lt;br&gt;UpdateConcertRequest): void&lt;br&gt;&lt;/span&gt;" style="text;html=1;strokeColor=none;fillColor=none;align=left;verticalAlign=middle;spacingLeft=4;spacingRight=4;overflow=hidden;rotatable=0;points=[[0,0.5],[1,0.5]];portConstraint=eastwest;whiteSpace=wrap;" vertex="1" parent="5OBYi5dotkxld0x0so39-1">
          <mxGeometry y="320" width="250" height="80" as="geometry" />
        </mxCell>
        <mxCell id="5OBYi5dotkxld0x0so39-38" style="edgeStyle=orthogonalEdgeStyle;rounded=0;orthogonalLoop=1;jettySize=auto;html=1;entryX=0.5;entryY=0;entryDx=0;entryDy=0;" edge="1" parent="1" source="5OBYi5dotkxld0x0so39-6" target="5OBYi5dotkxld0x0so39-43">
          <mxGeometry relative="1" as="geometry">
            <mxPoint x="6235" y="2970" as="targetPoint" />
          </mxGeometry>
        </mxCell>
        <mxCell id="5OBYi5dotkxld0x0so39-6" value="&lt;font style=&quot;font-size: 24px;&quot;&gt;ConcertsServiceImpl&lt;br&gt;&lt;/font&gt;" style="swimlane;fontStyle=0;align=center;verticalAlign=top;childLayout=stackLayout;horizontal=1;startSize=50;horizontalStack=0;resizeParent=1;resizeParentMax=0;resizeLast=0;collapsible=0;marginBottom=0;html=1;whiteSpace=wrap;" vertex="1" parent="1">
          <mxGeometry x="6110" y="2110" width="250" height="610" as="geometry" />
        </mxCell>
        <mxCell id="5OBYi5dotkxld0x0so39-11" value="&lt;span style=&quot;font-size: 18px;&quot;&gt;- concertRepository: final ConcertRepository&lt;/span&gt;" style="text;html=1;strokeColor=none;fillColor=none;align=left;verticalAlign=middle;spacingLeft=4;spacingRight=4;overflow=hidden;rotatable=0;points=[[0,0.5],[1,0.5]];portConstraint=eastwest;whiteSpace=wrap;" vertex="1" parent="5OBYi5dotkxld0x0so39-6">
          <mxGeometry y="50" width="250" height="70" as="geometry" />
        </mxCell>
        <mxCell id="5OBYi5dotkxld0x0so39-7" value="&lt;font style=&quot;font-size: 18px;&quot;&gt;+ addConcert(request: AddConcertRequest): AddConcertResponse&lt;/font&gt;" style="text;html=1;strokeColor=none;fillColor=none;align=left;verticalAlign=middle;spacingLeft=4;spacingRight=4;overflow=hidden;rotatable=0;points=[[0,0.5],[1,0.5]];portConstraint=eastwest;whiteSpace=wrap;" vertex="1" parent="5OBYi5dotkxld0x0so39-6">
          <mxGeometry y="120" width="250" height="100" as="geometry" />
        </mxCell>
        <mxCell id="5OBYi5dotkxld0x0so39-8" value="&lt;span style=&quot;font-size: 18px;&quot;&gt;&amp;nbsp;+ getConcert(id: Long): Concert&lt;/span&gt;" style="text;html=1;strokeColor=none;fillColor=none;align=left;verticalAlign=middle;spacingLeft=4;spacingRight=4;overflow=hidden;rotatable=0;points=[[0,0.5],[1,0.5]];portConstraint=eastwest;whiteSpace=wrap;" vertex="1" parent="5OBYi5dotkxld0x0so39-6">
          <mxGeometry y="220" width="250" height="70" as="geometry" />
        </mxCell>
        <mxCell id="5OBYi5dotkxld0x0so39-9" value="&lt;span style=&quot;font-size: 18px;&quot;&gt;&amp;nbsp;+ getAllConcerts(): List&amp;lt;Concert&amp;gt;&lt;/span&gt;" style="text;html=1;strokeColor=none;fillColor=none;align=left;verticalAlign=middle;spacingLeft=4;spacingRight=4;overflow=hidden;rotatable=0;points=[[0,0.5],[1,0.5]];portConstraint=eastwest;whiteSpace=wrap;" vertex="1" parent="5OBYi5dotkxld0x0so39-6">
          <mxGeometry y="290" width="250" height="80" as="geometry" />
        </mxCell>
        <mxCell id="5OBYi5dotkxld0x0so39-10" value="&lt;span style=&quot;font-size: 18px;&quot;&gt;&amp;nbsp;+ updateConcert(request:&lt;br&gt;UpdateConcertRequest): void&lt;br&gt;&lt;/span&gt;" style="text;html=1;strokeColor=none;fillColor=none;align=left;verticalAlign=middle;spacingLeft=4;spacingRight=4;overflow=hidden;rotatable=0;points=[[0,0.5],[1,0.5]];portConstraint=eastwest;whiteSpace=wrap;" vertex="1" parent="5OBYi5dotkxld0x0so39-6">
          <mxGeometry y="370" width="250" height="80" as="geometry" />
        </mxCell>
        <mxCell id="5OBYi5dotkxld0x0so39-12" value="&lt;span style=&quot;font-size: 18px;&quot;&gt;&amp;nbsp;- updateFields(request: UpdateConcertRequest, concert: ConcertEntity): void&lt;br&gt;&lt;/span&gt;" style="text;html=1;strokeColor=none;fillColor=none;align=left;verticalAlign=middle;spacingLeft=4;spacingRight=4;overflow=hidden;rotatable=0;points=[[0,0.5],[1,0.5]];portConstraint=eastwest;whiteSpace=wrap;" vertex="1" parent="5OBYi5dotkxld0x0so39-6">
          <mxGeometry y="450" width="250" height="80" as="geometry" />
        </mxCell>
        <mxCell id="5OBYi5dotkxld0x0so39-13" value="&lt;span style=&quot;font-size: 18px;&quot;&gt;&amp;nbsp;- saveNewConcert(request: AddConcertRequest): ConcertEntity&lt;br&gt;&lt;/span&gt;" style="text;html=1;strokeColor=none;fillColor=none;align=left;verticalAlign=middle;spacingLeft=4;spacingRight=4;overflow=hidden;rotatable=0;points=[[0,0.5],[1,0.5]];portConstraint=eastwest;whiteSpace=wrap;" vertex="1" parent="5OBYi5dotkxld0x0so39-6">
          <mxGeometry y="530" width="250" height="80" as="geometry" />
        </mxCell>
        <mxCell id="5OBYi5dotkxld0x0so39-14" value="&lt;font style=&quot;font-size: 24px;&quot;&gt;&amp;lt;&amp;lt;implements&amp;gt;&amp;gt;&lt;/font&gt;" style="html=1;verticalAlign=bottom;labelBackgroundColor=none;endArrow=open;endFill=0;dashed=1;rounded=0;exitX=-0.001;exitY=1.031;exitDx=0;exitDy=0;exitPerimeter=0;entryX=0.999;entryY=0.316;entryDx=0;entryDy=0;entryPerimeter=0;" edge="1" parent="1" source="5OBYi5dotkxld0x0so39-3" target="5OBYi5dotkxld0x0so39-8">
          <mxGeometry x="0.0328" y="-2" width="160" relative="1" as="geometry">
            <mxPoint x="6400" y="2380" as="sourcePoint" />
            <mxPoint x="6560" y="2380" as="targetPoint" />
            <mxPoint as="offset" />
          </mxGeometry>
        </mxCell>
        <mxCell id="5OBYi5dotkxld0x0so39-23" style="edgeStyle=orthogonalEdgeStyle;rounded=0;orthogonalLoop=1;jettySize=auto;html=1;entryX=0.5;entryY=0;entryDx=0;entryDy=0;" edge="1" parent="1" source="5OBYi5dotkxld0x0so39-15" target="5OBYi5dotkxld0x0so39-6">
          <mxGeometry relative="1" as="geometry" />
        </mxCell>
        <mxCell id="5OBYi5dotkxld0x0so39-15" value="&lt;font style=&quot;font-size: 24px;&quot;&gt;ConcertController&lt;br&gt;&lt;/font&gt;" style="swimlane;fontStyle=0;align=center;verticalAlign=top;childLayout=stackLayout;horizontal=1;startSize=50;horizontalStack=0;resizeParent=1;resizeParentMax=0;resizeLast=0;collapsible=0;marginBottom=0;html=1;whiteSpace=wrap;" vertex="1" parent="1">
          <mxGeometry x="6110" y="1410" width="250" height="430" as="geometry" />
        </mxCell>
        <mxCell id="5OBYi5dotkxld0x0so39-16" value="&lt;span style=&quot;font-size: 18px;&quot;&gt;+ addConcert(request: AddConcertRequest): ResponseEntity&lt;br&gt;&amp;lt;AddConcertResponse&amp;gt;&amp;nbsp;&amp;nbsp;&lt;/span&gt;" style="text;html=1;strokeColor=none;fillColor=none;align=left;verticalAlign=middle;spacingLeft=4;spacingRight=4;overflow=hidden;rotatable=0;points=[[0,0.5],[1,0.5]];portConstraint=eastwest;whiteSpace=wrap;" vertex="1" parent="5OBYi5dotkxld0x0so39-15">
          <mxGeometry y="50" width="250" height="130" as="geometry" />
        </mxCell>
        <mxCell id="5OBYi5dotkxld0x0so39-19" value="&lt;span style=&quot;font-size: 18px;&quot;&gt;&amp;nbsp;+ getConcerts(): ResponseEntity&lt;br&gt;&amp;lt;List&amp;lt;Concert&amp;gt;&amp;gt;&lt;/span&gt;" style="text;html=1;strokeColor=none;fillColor=none;align=left;verticalAlign=middle;spacingLeft=4;spacingRight=4;overflow=hidden;rotatable=0;points=[[0,0.5],[1,0.5]];portConstraint=eastwest;whiteSpace=wrap;" vertex="1" parent="5OBYi5dotkxld0x0so39-15">
          <mxGeometry y="180" width="250" height="90" as="geometry" />
        </mxCell>
        <mxCell id="5OBYi5dotkxld0x0so39-20" value="&lt;span style=&quot;font-size: 18px;&quot;&gt;&amp;nbsp;+ getConcert(id: long):&amp;nbsp;&lt;br&gt;ResponseEntity&amp;lt;Concert&amp;gt;&lt;br&gt;&lt;/span&gt;" style="text;html=1;strokeColor=none;fillColor=none;align=left;verticalAlign=middle;spacingLeft=4;spacingRight=4;overflow=hidden;rotatable=0;points=[[0,0.5],[1,0.5]];portConstraint=eastwest;whiteSpace=wrap;" vertex="1" parent="5OBYi5dotkxld0x0so39-15">
          <mxGeometry y="270" width="250" height="80" as="geometry" />
        </mxCell>
        <mxCell id="5OBYi5dotkxld0x0so39-21" value="&lt;span style=&quot;font-size: 18px;&quot;&gt;&amp;nbsp;+ updateConcert(id: long):&lt;br&gt;ResponseEntity&amp;lt;Concert&amp;gt;&amp;nbsp;&lt;br&gt;&lt;/span&gt;" style="text;html=1;strokeColor=none;fillColor=none;align=left;verticalAlign=middle;spacingLeft=4;spacingRight=4;overflow=hidden;rotatable=0;points=[[0,0.5],[1,0.5]];portConstraint=eastwest;whiteSpace=wrap;" vertex="1" parent="5OBYi5dotkxld0x0so39-15">
          <mxGeometry y="350" width="250" height="80" as="geometry" />
        </mxCell>
        <mxCell id="5OBYi5dotkxld0x0so39-24" value="&lt;font style=&quot;font-size: 24px;&quot;&gt;&amp;lt;&amp;lt;interface&amp;gt;&amp;gt;&lt;br&gt;ConcertRepository&lt;br&gt;&lt;/font&gt;" style="swimlane;fontStyle=0;align=center;verticalAlign=top;childLayout=stackLayout;horizontal=1;startSize=70;horizontalStack=0;resizeParent=1;resizeParentMax=0;resizeLast=0;collapsible=0;marginBottom=0;html=1;whiteSpace=wrap;" vertex="1" parent="1">
          <mxGeometry x="6650" y="2970" width="250" height="520" as="geometry" />
        </mxCell>
        <mxCell id="5OBYi5dotkxld0x0so39-25" value="&lt;span style=&quot;font-size: 18px;&quot;&gt;addConcert(concert: ConcertEntity): ConcertEntity&lt;/span&gt;" style="text;html=1;strokeColor=none;fillColor=none;align=left;verticalAlign=middle;spacingLeft=4;spacingRight=4;overflow=hidden;rotatable=0;points=[[0,0.5],[1,0.5]];portConstraint=eastwest;whiteSpace=wrap;" vertex="1" parent="5OBYi5dotkxld0x0so39-24">
          <mxGeometry y="70" width="250" height="100" as="geometry" />
        </mxCell>
        <mxCell id="5OBYi5dotkxld0x0so39-26" value="&lt;span style=&quot;font-size: 18px;&quot;&gt;getAll(): List&amp;lt;ConcertEntity&amp;gt;&lt;/span&gt;" style="text;html=1;strokeColor=none;fillColor=none;align=left;verticalAlign=middle;spacingLeft=4;spacingRight=4;overflow=hidden;rotatable=0;points=[[0,0.5],[1,0.5]];portConstraint=eastwest;whiteSpace=wrap;" vertex="1" parent="5OBYi5dotkxld0x0so39-24">
          <mxGeometry y="170" width="250" height="70" as="geometry" />
        </mxCell>
        <mxCell id="5OBYi5dotkxld0x0so39-39" value="&lt;span style=&quot;font-size: 18px;&quot;&gt;getByGenre(genre: String): List&amp;lt;ConcertEntity&amp;gt;&lt;/span&gt;" style="text;html=1;strokeColor=none;fillColor=none;align=left;verticalAlign=middle;spacingLeft=4;spacingRight=4;overflow=hidden;rotatable=0;points=[[0,0.5],[1,0.5]];portConstraint=eastwest;whiteSpace=wrap;" vertex="1" parent="5OBYi5dotkxld0x0so39-24">
          <mxGeometry y="240" width="250" height="70" as="geometry" />
        </mxCell>
        <mxCell id="5OBYi5dotkxld0x0so39-40" value="&lt;span style=&quot;font-size: 18px;&quot;&gt;getByArtist(artist: String): List&amp;lt;ConcertEntity&amp;gt;&lt;/span&gt;" style="text;html=1;strokeColor=none;fillColor=none;align=left;verticalAlign=middle;spacingLeft=4;spacingRight=4;overflow=hidden;rotatable=0;points=[[0,0.5],[1,0.5]];portConstraint=eastwest;whiteSpace=wrap;" vertex="1" parent="5OBYi5dotkxld0x0so39-24">
          <mxGeometry y="310" width="250" height="70" as="geometry" />
        </mxCell>
        <mxCell id="5OBYi5dotkxld0x0so39-41" value="&lt;span style=&quot;font-size: 18px;&quot;&gt;getByCity(city: String): List&amp;lt;ConcertEntity&amp;gt;&lt;/span&gt;" style="text;html=1;strokeColor=none;fillColor=none;align=left;verticalAlign=middle;spacingLeft=4;spacingRight=4;overflow=hidden;rotatable=0;points=[[0,0.5],[1,0.5]];portConstraint=eastwest;whiteSpace=wrap;" vertex="1" parent="5OBYi5dotkxld0x0so39-24">
          <mxGeometry y="380" width="250" height="70" as="geometry" />
        </mxCell>
        <mxCell id="5OBYi5dotkxld0x0so39-42" value="&lt;span style=&quot;font-size: 18px;&quot;&gt;getConcert(id: Long): ConcertEntity&lt;/span&gt;" style="text;html=1;strokeColor=none;fillColor=none;align=left;verticalAlign=middle;spacingLeft=4;spacingRight=4;overflow=hidden;rotatable=0;points=[[0,0.5],[1,0.5]];portConstraint=eastwest;whiteSpace=wrap;" vertex="1" parent="5OBYi5dotkxld0x0so39-24">
          <mxGeometry y="450" width="250" height="70" as="geometry" />
        </mxCell>
        <mxCell id="5OBYi5dotkxld0x0so39-37" value="&lt;font style=&quot;font-size: 24px;&quot;&gt;&amp;lt;&amp;lt;implements&amp;gt;&amp;gt;&lt;/font&gt;" style="html=1;verticalAlign=bottom;labelBackgroundColor=none;endArrow=open;endFill=0;dashed=1;rounded=0;exitX=-0.001;exitY=1.031;exitDx=0;exitDy=0;exitPerimeter=0;entryX=0.995;entryY=0.122;entryDx=0;entryDy=0;entryPerimeter=0;" edge="1" parent="1" source="5OBYi5dotkxld0x0so39-26" target="5OBYi5dotkxld0x0so39-44">
          <mxGeometry x="0.0328" y="-2" width="160" relative="1" as="geometry">
            <mxPoint x="6400" y="3240" as="sourcePoint" />
            <mxPoint x="6359.750000000002" y="3212.12" as="targetPoint" />
            <mxPoint as="offset" />
          </mxGeometry>
        </mxCell>
        <mxCell id="5OBYi5dotkxld0x0so39-43" value="&lt;font style=&quot;font-size: 24px;&quot;&gt;ConcertRepositoryImpl&lt;br&gt;&lt;/font&gt;" style="swimlane;fontStyle=0;align=center;verticalAlign=top;childLayout=stackLayout;horizontal=1;startSize=50;horizontalStack=0;resizeParent=1;resizeParentMax=0;resizeLast=0;collapsible=0;marginBottom=0;html=1;whiteSpace=wrap;" vertex="1" parent="1">
          <mxGeometry x="6110" y="2970" width="250" height="680" as="geometry" />
        </mxCell>
        <mxCell id="5OBYi5dotkxld0x0so39-50" value="&lt;span style=&quot;font-size: 18px;&quot;&gt;- NEXT_ID: static long&lt;/span&gt;" style="text;html=1;strokeColor=none;fillColor=none;align=left;verticalAlign=middle;spacingLeft=4;spacingRight=4;overflow=hidden;rotatable=0;points=[[0,0.5],[1,0.5]];portConstraint=eastwest;whiteSpace=wrap;" vertex="1" parent="5OBYi5dotkxld0x0so39-43">
          <mxGeometry y="50" width="250" height="60" as="geometry" />
        </mxCell>
        <mxCell id="5OBYi5dotkxld0x0so39-51" value="&lt;span style=&quot;font-size: 18px;&quot;&gt;- savedConcerts: final List&amp;lt;ConcertEntity&amp;gt;&lt;/span&gt;" style="text;html=1;strokeColor=none;fillColor=none;align=left;verticalAlign=middle;spacingLeft=4;spacingRight=4;overflow=hidden;rotatable=0;points=[[0,0.5],[1,0.5]];portConstraint=eastwest;whiteSpace=wrap;" vertex="1" parent="5OBYi5dotkxld0x0so39-43">
          <mxGeometry y="110" width="250" height="60" as="geometry" />
        </mxCell>
        <mxCell id="5OBYi5dotkxld0x0so39-52" value="&lt;span style=&quot;font-size: 18px;&quot;&gt;+ ConcertRepositoryImpl()&lt;/span&gt;" style="text;html=1;strokeColor=none;fillColor=none;align=left;verticalAlign=middle;spacingLeft=4;spacingRight=4;overflow=hidden;rotatable=0;points=[[0,0.5],[1,0.5]];portConstraint=eastwest;whiteSpace=wrap;" vertex="1" parent="5OBYi5dotkxld0x0so39-43">
          <mxGeometry y="170" width="250" height="60" as="geometry" />
        </mxCell>
        <mxCell id="5OBYi5dotkxld0x0so39-44" value="&lt;span style=&quot;font-size: 18px;&quot;&gt;+ addConcert(concert: ConcertEntity): ConcertEntity&lt;/span&gt;" style="text;html=1;strokeColor=none;fillColor=none;align=left;verticalAlign=middle;spacingLeft=4;spacingRight=4;overflow=hidden;rotatable=0;points=[[0,0.5],[1,0.5]];portConstraint=eastwest;whiteSpace=wrap;" vertex="1" parent="5OBYi5dotkxld0x0so39-43">
          <mxGeometry y="230" width="250" height="100" as="geometry" />
        </mxCell>
        <mxCell id="5OBYi5dotkxld0x0so39-45" value="&lt;span style=&quot;font-size: 18px;&quot;&gt;+ getAll(): List&amp;lt;ConcertEntity&amp;gt;&lt;/span&gt;" style="text;html=1;strokeColor=none;fillColor=none;align=left;verticalAlign=middle;spacingLeft=4;spacingRight=4;overflow=hidden;rotatable=0;points=[[0,0.5],[1,0.5]];portConstraint=eastwest;whiteSpace=wrap;" vertex="1" parent="5OBYi5dotkxld0x0so39-43">
          <mxGeometry y="330" width="250" height="70" as="geometry" />
        </mxCell>
        <mxCell id="5OBYi5dotkxld0x0so39-46" value="&lt;span style=&quot;font-size: 18px;&quot;&gt;+ getByGenre(genre: String): List&amp;lt;ConcertEntity&amp;gt;&lt;/span&gt;" style="text;html=1;strokeColor=none;fillColor=none;align=left;verticalAlign=middle;spacingLeft=4;spacingRight=4;overflow=hidden;rotatable=0;points=[[0,0.5],[1,0.5]];portConstraint=eastwest;whiteSpace=wrap;" vertex="1" parent="5OBYi5dotkxld0x0so39-43">
          <mxGeometry y="400" width="250" height="70" as="geometry" />
        </mxCell>
        <mxCell id="5OBYi5dotkxld0x0so39-47" value="&lt;span style=&quot;font-size: 18px;&quot;&gt;+ getByArtist(artist: String): List&amp;lt;ConcertEntity&amp;gt;&lt;/span&gt;" style="text;html=1;strokeColor=none;fillColor=none;align=left;verticalAlign=middle;spacingLeft=4;spacingRight=4;overflow=hidden;rotatable=0;points=[[0,0.5],[1,0.5]];portConstraint=eastwest;whiteSpace=wrap;" vertex="1" parent="5OBYi5dotkxld0x0so39-43">
          <mxGeometry y="470" width="250" height="70" as="geometry" />
        </mxCell>
        <mxCell id="5OBYi5dotkxld0x0so39-48" value="&lt;span style=&quot;font-size: 18px;&quot;&gt;+ getByCity(city: String): List&amp;lt;ConcertEntity&amp;gt;&lt;/span&gt;" style="text;html=1;strokeColor=none;fillColor=none;align=left;verticalAlign=middle;spacingLeft=4;spacingRight=4;overflow=hidden;rotatable=0;points=[[0,0.5],[1,0.5]];portConstraint=eastwest;whiteSpace=wrap;" vertex="1" parent="5OBYi5dotkxld0x0so39-43">
          <mxGeometry y="540" width="250" height="70" as="geometry" />
        </mxCell>
        <mxCell id="5OBYi5dotkxld0x0so39-49" value="&lt;span style=&quot;font-size: 18px;&quot;&gt;+ getConcert(id: Long): ConcertEntity&lt;/span&gt;" style="text;html=1;strokeColor=none;fillColor=none;align=left;verticalAlign=middle;spacingLeft=4;spacingRight=4;overflow=hidden;rotatable=0;points=[[0,0.5],[1,0.5]];portConstraint=eastwest;whiteSpace=wrap;" vertex="1" parent="5OBYi5dotkxld0x0so39-43">
          <mxGeometry y="610" width="250" height="70" as="geometry" />
        </mxCell>
      </root>
    </mxGraphModel>
  </diagram>
</mxfile>
